  0
SECTION
  2
HEADER
  9
$ACADVER
  1
AC1015
  9
$ACADMAINTVER
 70
     6
  9
$DWGCODEPAGE
  3
ANSI_1252
  9
$INSBASE
 10
0.0
 20
0.0
 30
0.0
  9
$EXTMIN
 10
-6.0
 20
-1.5
 30
0.0
  9
$EXTMAX
 10
6.0
 20
1.5
 30
0.0
  9
$LIMMIN
 10
0.0
 20
0.0
  9
$LIMMAX
 10
12.0
 20
9.0
  9
$ORTHOMODE
 70
     0
  9
$REGENMODE
 70
     1
  9
$FILLMODE
 70
     1
  9
$QTEXTMODE
 70
     0
  9
$MIRRTEXT
 70
     1
  9
$LTSCALE
 40
1.0
  9
$ATTMODE
 70
     1
  9
$TEXTSIZE
 40
0.125
  9
$TRACEWID
 40
0.05
  9
$TEXTSTYLE
  7
Standard
  9
$CLAYER
  8
0
  9
$CELTYPE
  6
ByLayer
  9
$CECOLOR
 62
   256
  9
$CELTSCALE
 40
1.0
  9
$DISPSILH
 70
     0
  9
$DIMSCALE
 40
1.0
  9
$DIMASZ
 40
0.13
  9
$DIMEXO
 40
0.0
  9
$DIMDLI
 40
0.38
  9
$DIMRND
 40
0.0
  9
$DIMDLE
 40
0.0
  9
$DIMEXE
 40
0.125
  9
$DIMTP
 40
0.0
  9
$DIMTM
 40
0.0
  9
$DIMTXT
 40
0.125
  9
$DIMCEN
 40
0.09
  9
$DIMTSZ
 40
0.0
  9
$DIMTOL
 70
     0
  9
$DIMLIM
 70
     0
  9
$DIMTIH
 70
     1
  9
$DIMTOH
 70
     1
  9
$DIMSE1
 70
     0
  9
$DIMSE2
 70
     0
  9
$DIMTAD
 70
     0
  9
$DIMZIN
 70
     1
  9
$DIMBLK
  1

  9
$DIMASO
 70
     1
  9
$DIMSHO
 70
     1
  9
$DIMPOST
  1

  9
$DIMAPOST
  1

  9
$DIMALT
 70
     0
  9
$DIMALTD
 70
     2
  9
$DIMALTF
 40
25.4
  9
$DIMLFAC
 40
1.0
  9
$DIMTOFL
 70
     0
  9
$DIMTVP
 40
0.0
  9
$DIMTIX
 70
     0
  9
$DIMSOXD
 70
     0
  9
$DIMSAH
 70
     0
  9
$DIMBLK1
  1

  9
$DIMBLK2
  1

  9
$DIMSTYLE
  2
Standard
  9
$DIMCLRD
 70
     0
  9
$DIMCLRE
 70
     0
  9
$DIMCLRT
 70
     0
  9
$DIMTFAC
 40
1.0
  9
$DIMGAP
 40
0.06
  9
$DIMJUST
 70
     0
  9
$DIMSD1
 70
     0
  9
$DIMSD2
 70
     0
  9
$DIMTOLJ
 70
     1
  9
$DIMTZIN
 70
     1
  9
$DIMALTZ
 70
     0
  9
$DIMALTTZ
 70
     0
  9
$DIMUPT
 70
     0
  9
$DIMDEC
 70
     2
  9
$DIMTDEC
 70
     2
  9
$DIMALTU
 70
     2
  9
$DIMALTTD
 70
     2
  9
$DIMTXSTY
  7
Standard
  9
$DIMAUNIT
 70
     0
  9
$DIMADEC
 70
     2
  9
$DIMALTRND
 40
0.0
  9
$DIMAZIN
 70
     0
  9
$DIMDSEP
 70
    46
  9
$DIMATFIT
 70
     3
  9
$DIMFRAC
 70
     0
  9
$DIMLDRBLK
  1

  9
$DIMLUNIT
 70
     2
  9
$DIMLWD
 70
    -2
  9
$DIMLWE
 70
    -2
  9
$DIMTMOVE
 70
     0
  9
$LUNITS
 70
     2
  9
$LUPREC
 70
     2
  9
$SKETCHINC
 40
0.1
  9
$FILLETRAD
 40
0.0
  9
$AUNITS
 70
     0
  9
$AUPREC
 70
     2
  9
$MENU
  1
.
  9
$ELEVATION
 40
0.0
  9
$PELEVATION
 40
0.0
  9
$THICKNESS
 40
0.0
  9
$LIMCHECK
 70
     0
  9
$CHAMFERA
 40
0.0
  9
$CHAMFERB
 40
0.0
  9
$CHAMFERC
 40
0.0
  9
$CHAMFERD
 40
0.0
  9
$SKPOLY
 70
     0
  9
$TDCREATE
 40
2460622.710428623
  9
$TDUCREATE
 40
2460623.043761956
  9
$TDUPDATE
 40
2460622.710477952
  9
$TDUUPDATE
 40
2460623.043811285
  9
$TDINDWG
 40
0.0000000116
  9
$TDUSRTIMER
 40
0.0000000116
  9
$USRTIMER
 70
     1
  9
$ANGBASE
 50
0.0
  9
$ANGDIR
 70
     0
  9
$PDMODE
 70
     0
  9
$PDSIZE
 40
-1.0
  9
$PLINEWID
 40
0.0
  9
$SPLFRAME
 70
     0
  9
$SPLINETYPE
 70
     6
  9
$SPLINESEGS
 70
     8
  9
$HANDSEED
  5
23E
  9
$SURFTAB1
 70
     6
  9
$SURFTAB2
 70
     6
  9
$SURFTYPE
 70
     6
  9
$SURFU
 70
     6
  9
$SURFV
 70
     6
  9
$UCSBASE
  2

  9
$UCSNAME
  2

  9
$UCSORG
 10
0.0
 20
0.0
 30
0.0
  9
$UCSXDIR
 10
1.0
 20
0.0
 30
0.0
  9
$UCSYDIR
 10
0.0
 20
1.0
 30
0.0
  9
$UCSORTHOREF
  2

  9
$UCSORTHOVIEW
 70
     0
  9
$UCSORGTOP
 10
0.0
 20
0.0
 30
0.0
  9
$UCSORGBOTTOM
 10
0.0
 20
0.0
 30
0.0
  9
$UCSORGLEFT
 10
0.0
 20
0.0
 30
0.0
  9
$UCSORGRIGHT
 10
0.0
 20
0.0
 30
0.0
  9
$UCSORGFRONT
 10
0.0
 20
0.0
 30
0.0
  9
$UCSORGBACK
 10
0.0
 20
0.0
 30
0.0
  9
$PUCSBASE
  2

  9
$PUCSNAME
  2

  9
$PUCSORG
 10
0.0
 20
0.0
 30
0.0
  9
$PUCSXDIR
 10
1.0
 20
0.0
 30
0.0
  9
$PUCSYDIR
 10
0.0
 20
1.0
 30
0.0
  9
$PUCSORTHOREF
  2

  9
$PUCSORTHOVIEW
 70
     0
  9
$PUCSORGTOP
 10
0.0
 20
0.0
 30
0.0
  9
$PUCSORGBOTTOM
 10
0.0
 20
0.0
 30
0.0
  9
$PUCSORGLEFT
 10
0.0
 20
0.0
 30
0.0
  9
$PUCSORGRIGHT
 10
0.0
 20
0.0
 30
0.0
  9
$PUCSORGFRONT
 10
0.0
 20
0.0
 30
0.0
  9
$PUCSORGBACK
 10
0.0
 20
0.0
 30
0.0
  9
$USERI1
 70
     0
  9
$USERI2
 70
     0
  9
$USERI3
 70
     0
  9
$USERI4
 70
     0
  9
$USERI5
 70
     0
  9
$USERR1
 40
0.0
  9
$USERR2
 40
0.0
  9
$USERR3
 40
0.0
  9
$USERR4
 40
0.0
  9
$USERR5
 40
0.0
  9
$WORLDVIEW
 70
     1
  9
$SHADEDGE
 70
     3
  9
$SHADEDIF
 70
    70
  9
$TILEMODE
 70
     1
  9
$MAXACTVP
 70
    64
  9
$PINSBASE
 10
0.0
 20
0.0
 30
0.0
  9
$PLIMCHECK
 70
     0
  9
$PEXTMIN
 10
1.0000000000E+20
 20
1.0000000000E+20
 30
1.0000000000E+20
  9
$PEXTMAX
 10
-1.0000000000E+20
 20
-1.0000000000E+20
 30
-1.0000000000E+20
  9
$PLIMMIN
 10
0.0
 20
0.0
  9
$PLIMMAX
 10
12.0
 20
9.0
  9
$UNITMODE
 70
     0
  9
$VISRETAIN
 70
     1
  9
$PLINEGEN
 70
     0
  9
$PSLTSCALE
 70
     1
  9
$TREEDEPTH
 70
  3020
  9
$CMLSTYLE
  2
Standard
  9
$CMLJUST
 70
     0
  9
$CMLSCALE
 40
1.0
  9
$PROXYGRAPHICS
 70
     1
  9
$MEASUREMENT
 70
     0
  9
$CELWEIGHT
370
    -1
  9
$ENDCAPS
280
     0
  9
$JOINSTYLE
280
     0
  9
$LWDISPLAY
290
     1
  9
$INSUNITS
 70
     1
  9
$HYPERLINKBASE
  1

  9
$STYLESHEET
  1

  9
$XEDIT
290
     1
  9
$CEPSNTYPE
380
     0
  9
$PSTYLEMODE
290
     1
  9
$FINGERPRINTGUID
  2
{62ae8e68-8c42-4547-bed3-7dfc8eddf604}
  9
$VERSIONGUID
  2
{FAEB1C32-E019-11D5-929B-00C0DF256EC4}
  9
$EXTNAMES
290
     1
  9
$PSVPSCALE
 40
0.0
  9
$OLESTARTUP
290
     0
  0
ENDSEC
  0
SECTION
  2
CLASSES
  0
CLASS
  1
ACDBDICTIONARYWDFLT
  2
AcDbDictionaryWithDefault
  3
ObjectDBX Classes
 90
        0
280
     0
281
     0
  0
CLASS
  1
VISUALSTYLE
  2
AcDbVisualStyle
  3
ObjectDBX Classes
 90
     4095
280
     0
281
     0
  0
CLASS
  1
MATERIAL
  2
AcDbMaterial
  3
ObjectDBX Classes
 90
     1153
280
     0
281
     0
  0
CLASS
  1
SCALE
  2
AcDbScale
  3
ObjectDBX Classes
 90
     1153
280
     0
281
     0
  0
CLASS
  1
TABLESTYLE
  2
AcDbTableStyle
  3
ObjectDBX Classes
 90
     4095
280
     0
281
     0
  0
CLASS
  1
MLEADERSTYLE
  2
AcDbMLeaderStyle
  3
ACDB_MLEADERSTYLE_CLASS
 90
     4095
280
     0
281
     0
  0
CLASS
  1
SUN
  2
AcDbSun
  3
SCENEOE
 90
     1153
280
     0
281
     0
  0
CLASS
  1
ACDBPLACEHOLDER
  2
AcDbPlaceHolder
  3
ObjectDBX Classes
 90
        0
280
     0
281
     0
  0
CLASS
  1
LAYOUT
  2
AcDbLayout
  3
ObjectDBX Classes
 90
        0
280
     0
281
     0
  0
ENDSEC
  0
SECTION
  2
TABLES
  0
TABLE
  2
VPORT
  5
8
330
0
100
AcDbSymbolTable
 70
     1
  0
VPORT
  5
29
330
8
100
AcDbSymbolTableRecord
100
AcDbViewportTableRecord
  2
*Active
 70
     0
 10
0.0
 20
0.0
 11
1.0
 21
1.0
 12
0.0
 22
0.0
 13
0.0
 23
0.0
 14
0.5
 24
0.5
 15
0.5
 25
0.5
 16
0.0
 26
0.0
 36
1.0
 17
0.0
 27
0.0
 37
0.0
 40
3.06
 41
4.0
 42
50.0
 43
0.0
 44
0.0
 50
0.0
 51
0.0
 71
     0
 72
   100
 73
     1
 74
     3
 75
     0
 76
     0
 77
     0
 78
     0
281
     0
 65
     1
110
0.0
120
0.0
130
0.0
111
1.0
121
0.0
131
0.0
112
0.0
122
1.0
132
0.0
 79
     0
146
0.0
  0
ENDTAB
  0
TABLE
  2
LTYPE
  5
5
330
0
100
AcDbSymbolTable
 70
     6
  0
LTYPE
  5
14
330
5
100
AcDbSymbolTableRecord
100
AcDbLinetypeTableRecord
  2
ByBlock
 70
     0
  3

 72
    65
 73
     0
 40
0.0
  0
LTYPE
  5
15
330
5
100
AcDbSymbolTableRecord
100
AcDbLinetypeTableRecord
  2
ByLayer
 70
     0
  3

 72
    65
 73
     0
 40
0.0
  0
LTYPE
  5
16
330
5
100
AcDbSymbolTableRecord
100
AcDbLinetypeTableRecord
  2
Continuous
 70
     0
  3
Solid line
 72
    65
 73
     0
 40
0.0
  0
LTYPE
  5
5E
330
5
100
AcDbSymbolTableRecord
100
AcDbLinetypeTableRecord
  2
HIDDEN
 70
     0
  3
Hidden __ __ __ __ __ __ __ __ __ __ __ __ __ __
 72
    65
 73
     2
 40
0.075
 49
0.05
 74
     0
 49
-0.025
 74
     0
  0
LTYPE
  5
5F
330
5
100
AcDbSymbolTableRecord
100
AcDbLinetypeTableRecord
  2
PHANTOM
 70
     0
  3
Phantom ______  __  __  ______  __  __  ______
 72
    65
 73
     6
 40
0.5
 49
0.25
 74
     0
 49
-0.05
 74
     0
 49
0.05
 74
     0
 49
-0.05
 74
     0
 49
0.05
 74
     0
 49
-0.05
 74
     0
  0
LTYPE
  5
60
330
5
100
AcDbSymbolTableRecord
100
AcDbLinetypeTableRecord
  2
CENTER
 70
     0
  3
Center ____ _ ____ _ ____ _ ____ _ ____ _ ____
 72
    65
 73
     4
 40
0.4
 49
0.25
 74
     0
 49
-0.05
 74
     0
 49
0.05
 74
     0
 49
-0.05
 74
     0
  0
LTYPE
  5
61
330
5
100
AcDbSymbolTableRecord
100
AcDbLinetypeTableRecord
  2
CENTERX2
 70
     0
  3
Center (2x) ________  __  ________  __  _____
 72
    65
 73
     4
 40
0.8
 49
0.5
 74
     0
 49
-0.1
 74
     0
 49
0.1
 74
     0
 49
-0.1
 74
     0
  0
LTYPE
  5
62
330
5
100
AcDbSymbolTableRecord
100
AcDbLinetypeTableRecord
  2
DOT2
 70
     0
  3
Dot (.5x) ........................................
 72
    65
 73
     2
 40
0.025
 49
0.0
 74
     0
 49
-0.025
 74
     0
  0
ENDTAB
  0
TABLE
  2
LAYER
  5
2
330
0
100
AcDbSymbolTable
 70
     1
  0
LAYER
  5
10
330
2
100
AcDbSymbolTableRecord
100
AcDbLayerTableRecord
  2
0
 70
     0
 62
     7
  6
Continuous
370
    -3
390
F
  0
ENDTAB
  0
TABLE
  2
STYLE
  5
3
330
0
100
AcDbSymbolTable
 70
     1
  0
STYLE
  5
11
330
3
100
AcDbSymbolTableRecord
100
AcDbTextStyleTableRecord
  2
Standard
 70
     0
 40
0.0
 41
1.0
 50
0.0
 71
     0
 42
0.125
  3
txt
  4

  0
ENDTAB
  0
TABLE
  2
VIEW
  5
6
330
0
100
AcDbSymbolTable
 70
     0
  0
ENDTAB
  0
TABLE
  2
UCS
  5
7
330
0
100
AcDbSymbolTable
 70
     0
  0
ENDTAB
  0
TABLE
  2
APPID
  5
9
330
0
100
AcDbSymbolTable
 70
     1
  0
APPID
  5
12
330
9
100
AcDbSymbolTableRecord
100
AcDbRegAppTableRecord
  2
ACAD
 70
     0
  0
ENDTAB
  0
TABLE
  2
DIMSTYLE
  5
A
330
0
100
AcDbSymbolTable
 70
     1
100
AcDbDimStyleTable
  0
DIMSTYLE
105
27
330
A
100
AcDbSymbolTableRecord
100
AcDbDimStyleTableRecord
  2
Standard
 70
     0
178
     0
340
11
  0
ENDTAB
  0
TABLE
  2
BLOCK_RECORD
  5
1
330
0
100
AcDbSymbolTable
 70
     1
  0
BLOCK_RECORD
  5
1F
330
1
100
AcDbSymbolTableRecord
100
AcDbBlockTableRecord
  2
*Model_Space
340
22
  0
BLOCK_RECORD
  5
1B
330
1
100
AcDbSymbolTableRecord
100
AcDbBlockTableRecord
  2
*Paper_Space
340
1E
  0
BLOCK_RECORD
  5
23
330
1
100
AcDbSymbolTableRecord
100
AcDbBlockTableRecord
  2
*Paper_Space0
340
26
  0
ENDTAB
  0
ENDSEC
  0
SECTION
  2
BLOCKS
  0
BLOCK
  5
20
330
1F
100
AcDbEntity
  8
0
100
AcDbBlockBegin
  2
*Model_Space
 70
     0
 10
0.0
 20
0.0
 30
0.0
  3
*Model_Space
  1

  0
ENDBLK
  5
21
330
1F
100
AcDbEntity
  8
0
100
AcDbBlockEnd
  0
BLOCK
  5
1C
330
1B
100
AcDbEntity
 67
     1
  8
0
100
AcDbBlockBegin
  2
*Paper_Space
 70
     0
 10
0.0
 20
0.0
 30
0.0
  3
*Paper_Space
  1

  0
ENDBLK
  5
1D
330
1B
100
AcDbEntity
 67
     1
  8
0
100
AcDbBlockEnd
  0
BLOCK
  5
24
330
23
100
AcDbEntity
  8
0
100
AcDbBlockBegin
  2
*Paper_Space0
 70
     0
 10
0.0
 20
0.0
 30
0.0
  3
*Paper_Space0
  1

  0
ENDBLK
  5
25
330
23
100
AcDbEntity
  8
0
100
AcDbBlockEnd
  0
ENDSEC
  0
SECTION
  2
ENTITIES
  0
LINE
  5
63
330
1F
100
AcDbEntity
  8
0
  6
Continuous
 62
     7
370
    25
100
AcDbLine
 10
-5.5826116168
 20
1.0487062633
 30
0.0
 11
-5.0144297827
 21
0.8556026758
 31
0.0
  0
ARC
  5
64
330
1F
100
AcDbEntity
  8
0
  6
Continuous
 62
     7
370
    25
100
AcDbCircle
 10
-5.5625
 20
1.1078820427
 30
0.0
 40
0.0625000000000001
100
AcDbArc
 50
180.0
 51
251.2290389424
  0
LINE
  5
65
330
1F
100
AcDbEntity
  8
0
  6
Continuous
 62
     7
370
    25
100
AcDbLine
 10
-5.625
 20
1.1078820427
 30
0.0
 11
-5.625
 21
1.2475
 31
0.0
  0
ARC
  5
66
330
1F
100
AcDbEntity
  8
0
  6
Continuous
 62
     7
370
    25
100
AcDbCircle
 10
-5.5625
 20
1.2475
 30
0.0
 40
0.0625
100
AcDbArc
 50
90.0
 51
180.0
  0
LINE
  5
67
330
1F
100
AcDbEntity
  8
0
  6
Continuous
 62
     7
370
    25
100
AcDbLine
 10
-4.8375
 20
1.31
 30
0.0
 11
-5.5625
 21
1.31
 31
0.0
  0
ARC
  5
68
330
1F
100
AcDbEntity
  8
0
  6
Continuous
 62
     7
370
    25
100
AcDbCircle
 10
-4.8375
 20
1.2475
 30
0.0
 40
0.0625000000000009
100
AcDbArc
 50
0.0
 51
90.0
  0
LINE
  5
69
330
1F
100
AcDbEntity
  8
0
  6
Continuous
 62
     7
370
    25
100
AcDbLine
 10
-4.775
 20
1.2475
 30
0.0
 11
-4.775
 21
1.1699073915
 31
0.0
  0
ARC
  5
6A
330
1F
100
AcDbEntity
  8
0
  6
Continuous
 62
     7
370
    25
100
AcDbCircle
 10
-4.8375
 20
1.1699073915
 30
0.0
 40
0.0625
100
AcDbArc
 50
300.264992611
 51
0.0
  0
ARC
  5
6B
330
1F
100
AcDbEntity
  8
0
  6
Continuous
 62
     7
370
    25
100
AcDbCircle
 10
-4.68
 20
0.9
 30
0.0
 40
0.2499999999999998
100
AcDbArc
 50
120.264992611
 51
175.8673781443
  0
ARC
  5
6C
330
1F
100
AcDbEntity
  8
0
  6
Continuous
 62
     7
370
    25
100
AcDbCircle
 10
-4.991687473
 20
0.922520417
 30
0.0
 40
0.0625000000000004
100
AcDbArc
 50
341.2324093314
 51
355.8673781443
  0
LINE
  5
6D
330
1F
100
AcDbEntity
  8
0
  6
Continuous
 62
     7
370
    25
100
AcDbLine
 10
-4.9351412036
 20
0.8946703195
 30
0.0
 11
-4.9325105106
 21
0.9024122812
 31
0.0
  0
ARC
  5
6E
330
1F
100
AcDbEntity
  8
0
  6
Continuous
 62
     7
370
    25
100
AcDbCircle
 10
-4.9943181659
 20
0.9147784553
 30
0.0
 40
0.0625000000000005
100
AcDbArc
 50
251.2290389424
 51
341.2324093314
  0
CIRCLE
  5
6F
330
1F
100
AcDbEntity
  8
0
  6
Continuous
 62
     7
370
    25
100
AcDbCircle
 10
-5.8125
 20
1.0265
 30
0.0
 40
0.0847500000000005
  0
LINE
  5
70
330
1F
100
AcDbEntity
  8
0
  6
Continuous
 62
     7
370
    25
100
AcDbLine
 10
-5.81
 20
0.8125
 30
0.0
 11
-5.81
 21
0.0575
 31
0.0
  0
ARC
  5
71
330
1F
100
AcDbEntity
  8
0
  6
Continuous
 62
     7
370
    25
100
AcDbCircle
 10
-5.7475
 20
0.8125
 30
0.0
 40
0.0625
100
AcDbArc
 50
90.0
 51
180.0
  0
LINE
  5
72
330
1F
100
AcDbEntity
  8
0
  6
Continuous
 62
     7
370
    25
100
AcDbLine
 10
-5.7475
 20
0.875
 30
0.0
 11
-5.6722891541
 21
0.875
 31
0.0
  0
ARC
  5
73
330
1F
100
AcDbEntity
  8
0
  6
Continuous
 62
     7
370
    25
100
AcDbCircle
 10
-5.6722891541
 20
0.8125
 30
0.0
 40
0.0625000000000003
100
AcDbArc
 50
71.2290389424
 51
90.0
  0
LINE
  5
74
330
1F
100
AcDbEntity
  8
0
  6
Continuous
 62
     7
370
    25
100
AcDbLine
 10
-5.6521775374
 20
0.8716757794
 30
0.0
 11
-5.0755515535
 21
0.6757023438
 31
0.0
  0
ARC
  5
75
330
1F
100
AcDbEntity
  8
0
  6
Continuous
 62
     7
370
    25
100
AcDbCircle
 10
-5.0956631703
 20
0.6165265643
 30
0.0
 40
0.0624999999999994
100
AcDbArc
 50
341.2324093314
 51
71.2290389424
  0
LINE
  5
76
330
1F
100
AcDbEntity
  8
0
  6
Continuous
 62
     7
370
    25
100
AcDbLine
 10
-5.2209591065
 20
0.0535264411
 30
0.0
 11
-5.0364862079
 21
0.5964184286
 31
0.0
  0
ARC
  5
77
330
1F
100
AcDbEntity
  8
0
  6
Continuous
 62
     7
370
    25
100
AcDbCircle
 10
-5.2801360689
 20
0.0736345769
 30
0.0
 40
0.0624999999999998
100
AcDbArc
 50
223.9904376941
 51
341.2324093314
  0
ARC
  5
78
330
1F
100
AcDbEntity
  8
0
  6
Continuous
 62
     7
370
    25
100
AcDbCircle
 10
-5.46
 20
-0.1
 30
0.0
 40
0.1875000000000007
100
AcDbArc
 50
43.9904376941
 51
140.9498774638
  0
ARC
  5
79
330
1F
100
AcDbEntity
  8
0
  6
Continuous
 62
     7
370
    25
100
AcDbCircle
 10
-5.6541487832
 20
0.0575
 30
0.0
 40
0.0625
100
AcDbArc
 50
270.0
 51
320.9498774638
  0
LINE
  5
7A
330
1F
100
AcDbEntity
  8
0
  6
Continuous
 62
     7
370
    25
100
AcDbLine
 10
-5.6541487832
 20
-0.005
 30
0.0
 11
-5.7475
 21
-0.005
 31
0.0
  0
ARC
  5
7B
330
1F
100
AcDbEntity
  8
0
  6
Continuous
 62
     7
370
    25
100
AcDbCircle
 10
-5.7475
 20
0.0575
 30
0.0
 40
0.0625
100
AcDbArc
 50
180.0
 51
270.0
  0
LINE
  5
7C
330
1F
100
AcDbEntity
  8
0
  6
Continuous
 62
     7
370
    25
100
AcDbLine
 10
3.1599238243
 20
0.91
 30
0.0
 11
3.4371131844
 21
0.91
 31
0.0
  0
ARC
  5
7D
330
1F
100
AcDbEntity
  8
0
  6
Continuous
 62
     7
370
    25
100
AcDbCircle
 10
3.1599238243
 20
0.87875
 30
0.0
 40
0.0312500000000003
100
AcDbArc
 50
90.0
 51
161.2324093314
  0
LINE
  5
7E
330
1F
100
AcDbEntity
  8
0
  6
Continuous
 62
     7
370
    25
100
AcDbLine
 10
2.879286129
 20
0.1499822257
 30
0.0
 11
3.1303353431
 21
0.8888040679
 31
0.0
  0
ARC
  5
7F
330
1F
100
AcDbEntity
  8
0
  6
Continuous
 62
     7
370
    25
100
AcDbCircle
 10
2.8201091666
 20
0.1700903614
 30
0.0
 40
0.0625
100
AcDbArc
 50
270.0
 51
341.2324093314
  0
LINE
  5
80
330
1F
100
AcDbEntity
  8
0
  6
Continuous
 62
     7
370
    25
100
AcDbLine
 10
2.8201091666
 20
0.1075903614
 30
0.0
 11
2.7353497369
 21
0.1075903614
 31
0.0
  0
ARC
  5
81
330
1F
100
AcDbEntity
  8
0
  6
Continuous
 62
     7
370
    25
100
AcDbCircle
 10
2.7353497369
 20
0.1700903614
 30
0.0
 40
0.0625
100
AcDbArc
 50
161.2290094026
 51
270.0
  0
LINE
  5
82
330
1F
100
AcDbEntity
  8
0
  6
Continuous
 62
     7
370
    25
100
AcDbLine
 10
2.8725527108
 20
0.7680195783
 30
0.0
 11
2.6761739678
 21
0.1902020087
 31
0.0
  0
SPLINE
  5
83
330
1F
100
AcDbEntity
  8
0
  6
Continuous
 62
     7
370
    25
100
AcDbSpline
210
0.0
220
0.0
230
1.0
 70
     8
 71
     3
 72
    15
 73
    11
 74
     0
 42
0.00000001
 43
0.00000001
 40
0.0
 40
0.0
 40
0.0
 40
0.0
 40
0.1527795599271008
 40
0.2823975820725571
 40
0.3926961163159993
 40
0.4945798470801525
 40
0.5962373647671542
 40
0.7107012822102041
 40
0.8424722498098731
 40
1.0
 40
1.0
 40
1.0
 40
1.0
 10
2.778689759036143
 20
0.9100000000000121
 30
0.0
 10
2.789472068531774
 20
0.9092428679511974
 30
0.0
 10
2.809402078358854
 20
0.9078433858477211
 30
0.0
 10
2.836376768894544
 20
0.9005896526504278
 30
0.0
 10
2.857941579316279
 20
0.8890233757655505
 30
0.0
 10
2.873202390290234
 20
0.8723653659270721
 30
0.0
 10
2.882433067828722
 20
0.8514704165401727
 30
0.0
 10
2.88498480305218
 20
0.8267480266332585
 30
0.0
 10
2.881996711177163
 20
0.7981999800972776
 30
0.0
 10
2.875882173693017
 20
0.7786596167477906
 30
0.0
 10
2.872552710843373
 20
0.7680195783132655
 30
0.0
  0
LINE
  5
84
330
1F
100
AcDbEntity
  8
0
  6
Continuous
 62
     7
370
    25
100
AcDbLine
 10
2.6637776751
 20
0.91
 30
0.0
 11
2.778689759
 21
0.91
 31
0.0
  0
ARC
  5
85
330
1F
100
AcDbEntity
  8
0
  6
Continuous
 62
     7
370
    25
100
AcDbCircle
 10
2.6637776751
 20
0.9725
 30
0.0
 40
0.0625
100
AcDbArc
 50
161.2324093314
 51
270.0
  0
LINE
  5
86
330
1F
100
AcDbEntity
  8
0
  6
Continuous
 62
     7
370
    25
100
AcDbLine
 10
2.6046007127
 20
0.9926081357
 30
0.0
 11
2.6980448016
 21
1.2676081357
 31
0.0
  0
ARC
  5
87
330
1F
100
AcDbEntity
  8
0
  6
Continuous
 62
     7
370
    25
100
AcDbCircle
 10
2.757221764
 20
1.2475
 30
0.0
 40
0.0624999999999998
100
AcDbArc
 50
90.0
 51
161.2324093314
  0
LINE
  5
88
330
1F
100
AcDbEntity
  8
0
  6
Continuous
 62
     7
370
    25
100
AcDbLine
 10
3.5305572733
 20
1.31
 30
0.0
 11
2.757221764
 21
1.31
 31
0.0
  0
ARC
  5
89
330
1F
100
AcDbEntity
  8
0
  6
Continuous
 62
     7
370
    25
100
AcDbCircle
 10
3.5305572733
 20
1.2475
 30
0.0
 40
0.0625000000000007
100
AcDbArc
 50
341.2324093314
 51
90.0
  0
LINE
  5
8A
330
1F
100
AcDbEntity
  8
0
  6
Continuous
 62
     7
370
    25
100
AcDbLine
 10
3.4962901468
 20
0.9523918643
 30
0.0
 11
3.5897342357
 21
1.2273918643
 31
0.0
  0
ARC
  5
8B
330
1F
100
AcDbEntity
  8
0
  6
Continuous
 62
     7
370
    25
100
AcDbCircle
 10
3.4371131844
 20
0.9725
 30
0.0
 40
0.0625000000000006
100
AcDbArc
 50
270.0
 51
341.2324093314
  0
LINE
  5
8C
330
1F
100
AcDbEntity
  8
0
  6
Continuous
 62
     7
370
    25
100
AcDbLine
 10
3.7698017715
 20
0.91
 30
0.0
 11
3.8847138554
 21
0.91
 31
0.0
  0
ARC
  5
8D
330
1F
100
AcDbEntity
  8
0
  6
Continuous
 62
     7
370
    25
100
AcDbCircle
 10
3.7698017715
 20
0.9725
 30
0.0
 40
0.0625
100
AcDbArc
 50
161.2324093314
 51
270.0
  0
LINE
  5
8E
330
1F
100
AcDbEntity
  8
0
  6
Continuous
 62
     7
370
    25
100
AcDbLine
 10
3.7106248091
 20
0.9926081357
 30
0.0
 11
3.804068898
 21
1.2676081357
 31
0.0
  0
ARC
  5
8F
330
1F
100
AcDbEntity
  8
0
  6
Continuous
 62
     7
370
    25
100
AcDbCircle
 10
3.8632458603
 20
1.2475
 30
0.0
 40
0.0625
100
AcDbArc
 50
90.0
 51
161.2324093314
  0
LINE
  5
90
330
1F
100
AcDbEntity
  8
0
  6
Continuous
 62
     7
370
    25
100
AcDbLine
 10
4.181061747
 20
1.31
 30
0.0
 11
3.8632458603
 21
1.31
 31
0.0
  0
ARC
  5
91
330
1F
100
AcDbEntity
  8
0
  6
Continuous
 62
     7
370
    25
100
AcDbCircle
 10
4.181061747
 20
1.2475
 30
0.0
 40
0.0625
100
AcDbArc
 50
0.0
 51
90.0
  0
LINE
  5
92
330
1F
100
AcDbEntity
  8
0
  6
Continuous
 62
     7
370
    25
100
AcDbLine
 10
4.243561747
 20
1.2475
 30
0.0
 11
4.243561747
 21
0.9203286478
 31
0.0
  0
ARC
  5
93
330
1F
100
AcDbEntity
  8
0
  6
Continuous
 62
     7
370
    25
100
AcDbCircle
 10
4.181061747
 20
0.9203286478
 30
0.0
 40
0.0625
100
AcDbArc
 50
341.2324093314
 51
0.0
  0
LINE
  5
94
330
1F
100
AcDbEntity
  8
0
  6
Continuous
 62
     7
370
    25
100
AcDbLine
 10
3.9853102254
 20
0.1499822257
 30
0.0
 11
4.2402387094
 21
0.900220512
 31
0.0
  0
ARC
  5
95
330
1F
100
AcDbEntity
  8
0
  6
Continuous
 62
     7
370
    25
100
AcDbCircle
 10
3.926133263
 20
0.1700903614
 30
0.0
 40
0.0625
100
AcDbArc
 50
270.0
 51
341.2324093314
  0
LINE
  5
96
330
1F
100
AcDbEntity
  8
0
  6
Continuous
 62
     7
370
    25
100
AcDbLine
 10
3.926133263
 20
0.1075903614
 30
0.0
 11
3.8413738332
 21
0.1075903614
 31
0.0
  0
ARC
  5
97
330
1F
100
AcDbEntity
  8
0
  6
Continuous
 62
     7
370
    25
100
AcDbCircle
 10
3.8413738332
 20
0.1700903614
 30
0.0
 40
0.0625000000000001
100
AcDbArc
 50
161.2290094026
 51
270.0
  0
LINE
  5
98
330
1F
100
AcDbEntity
  8
0
  6
Continuous
 62
     7
370
    25
100
AcDbLine
 10
3.9785768072
 20
0.7680195783
 30
0.0
 11
3.7821980642
 21
0.1902020087
 31
0.0
  0
SPLINE
  5
99
330
1F
100
AcDbEntity
  8
0
  6
Continuous
 62
     7
370
    25
100
AcDbSpline
210
0.0
220
0.0
230
1.0
 70
     8
 71
     3
 72
    15
 73
    11
 74
     0
 42
0.00000001
 43
0.00000001
 40
0.0
 40
0.0
 40
0.0
 40
0.0
 40
0.1527795599271004
 40
0.2823975820725562
 40
0.3926961163160026
 40
0.4945798470801519
 40
0.5962373647671554
 40
0.710701282210205
 40
0.8424722498098736
 40
1.0
 40
1.0
 40
1.0
 40
1.0
 10
3.884713855421685
 20
0.9100000000000175
 30
0.0
 10
3.895496164917315
 20
0.9092428679512027
 30
0.0
 10
3.915426174744395
 20
0.9078433858477265
 30
0.0
 10
3.942400865280085
 20
0.9005896526504323
 30
0.0
 10
3.963965675701822
 20
0.8890233757655567
 30
0.0
 10
3.979226486675774
 20
0.8723653659270769
 30
0.0
 10
3.988457164214266
 20
0.8514704165401785
 30
0.0
 10
3.991008899437721
 20
0.8267480266332635
 30
0.0
 10
3.988020807562707
 20
0.7981999800972833
 30
0.0
 10
3.981906270078559
 20
0.7786596167477959
 30
0.0
 10
3.978576807228916
 20
0.7680195783132708
 30
0.0
  0
LINE
  5
9A
330
1F
100
AcDbEntity
  8
0
  6
Continuous
 62
     7
370
    25
100
AcDbLine
 10
2.0538997279
 20
0.91
 30
0.0
 11
2.3310890881
 21
0.91
 31
0.0
  0
ARC
  5
9B
330
1F
100
AcDbEntity
  8
0
  6
Continuous
 62
     7
370
    25
100
AcDbCircle
 10
2.0538997279
 20
0.87875
 30
0.0
 40
0.03125
100
AcDbArc
 50
90.0
 51
161.2324093314
  0
LINE
  5
9C
330
1F
100
AcDbEntity
  8
0
  6
Continuous
 62
     7
370
    25
100
AcDbLine
 10
1.7732620326
 20
0.1499822257
 30
0.0
 11
2.0243112467
 21
0.8888040679
 31
0.0
  0
ARC
  5
9D
330
1F
100
AcDbEntity
  8
0
  6
Continuous
 62
     7
370
    25
100
AcDbCircle
 10
1.7140850703
 20
0.1700903614
 30
0.0
 40
0.0625
100
AcDbArc
 50
270.0
 51
341.2324093314
  0
LINE
  5
9E
330
1F
100
AcDbEntity
  8
0
  6
Continuous
 62
     7
370
    25
100
AcDbLine
 10
1.7140850703
 20
0.1075903614
 30
0.0
 11
1.6292670741
 21
0.1075903614
 31
0.0
  0
ARC
  5
9F
330
1F
100
AcDbEntity
  8
0
  6
Continuous
 62
     7
370
    25
100
AcDbCircle
 10
1.6292670741
 20
0.1700903614
 30
0.0
 40
0.0625000000000002
100
AcDbArc
 50
161.2238034972
 51
270.0
  0
LINE
  5
A0
330
1F
100
AcDbEntity
  8
0
  6
Continuous
 62
     7
370
    25
100
AcDbLine
 10
1.7665286145
 20
0.7680195783
 30
0.0
 11
1.5700931327
 21
0.1902073854
 31
0.0
  0
SPLINE
  5
A1
330
1F
100
AcDbEntity
  8
0
  6
Continuous
 62
     7
370
    25
100
AcDbSpline
210
0.0
220
0.0
230
1.0
 70
     8
 71
     3
 72
    15
 73
    11
 74
     0
 42
0.00000001
 43
0.00000001
 40
0.0
 40
0.0
 40
0.0
 40
0.0
 40
0.1483262009759471
 40
0.2765170782738022
 40
0.3868457783080774
 40
0.4889701119151642
 40
0.5926252478324093
 40
0.7087951851571721
 40
0.8420071705523936
 40
1.0
 40
1.0
 40
1.0
 40
1.0
 10
1.672665662650601
 20
0.9100000000000067
 30
0.0
 10
1.682999156468023
 20
0.9092328072181176
 30
0.0
 10
1.702263369398395
 20
0.9078025682911781
 30
0.0
 10
1.728413403682967
 20
0.9005166847177942
 30
0.0
 10
1.74962898855319
 20
0.8890397192893862
 30
0.0
 10
1.764389710397696
 20
0.8721673149989514
 30
0.0
 10
1.774091615033027
 20
0.8515548905548396
 30
0.0
 10
1.776882793383033
 20
0.8267822435206461
 30
0.0
 10
1.774597025417933
 20
0.7983390076426836
 30
0.0
 10
1.769366454533209
 20
0.7786835977886053
 30
0.0
 10
1.766528614457831
 20
0.7680195783132602
 30
0.0
  0
LINE
  5
A2
330
1F
100
AcDbEntity
  8
0
  6
Continuous
 62
     7
370
    25
100
AcDbLine
 10
1.557629961
 20
0.91
 30
0.0
 11
1.6726656627
 21
0.91
 31
0.0
  0
ARC
  5
A3
330
1F
100
AcDbEntity
  8
0
  6
Continuous
 62
     7
370
    25
100
AcDbCircle
 10
1.557629961
 20
0.9725
 30
0.0
 40
0.0625000000000001
100
AcDbArc
 50
161.2333926893
 51
270.0
  0
LINE
  5
A4
330
1F
100
AcDbEntity
  8
0
  6
Continuous
 62
     7
370
    25
100
AcDbLine
 10
1.4984526535
 20
0.9926071201
 30
0.0
 11
1.5918914777
 21
1.2676071201
 31
0.0
  0
ARC
  5
A5
330
1F
100
AcDbEntity
  8
0
  6
Continuous
 62
     7
370
    25
100
AcDbCircle
 10
1.6510687851
 20
1.2475
 30
0.0
 40
0.0625000000000001
100
AcDbArc
 50
90.0
 51
161.2333926893
  0
LINE
  5
A6
330
1F
100
AcDbEntity
  8
0
  6
Continuous
 62
     7
370
    25
100
AcDbLine
 10
2.4245331769
 20
1.31
 30
0.0
 11
1.6510687851
 21
1.31
 31
0.0
  0
ARC
  5
A7
330
1F
100
AcDbEntity
  8
0
  6
Continuous
 62
     7
370
    25
100
AcDbCircle
 10
2.4245331769
 20
1.2475
 30
0.0
 40
0.0625000000000002
100
AcDbArc
 50
341.2324093314
 51
90.0
  0
LINE
  5
A8
330
1F
100
AcDbEntity
  8
0
  6
Continuous
 62
     7
370
    25
100
AcDbLine
 10
2.3902660504
 20
0.9523918643
 30
0.0
 11
2.4837101393
 21
1.2273918643
 31
0.0
  0
ARC
  5
A9
330
1F
100
AcDbEntity
  8
0
  6
Continuous
 62
     7
370
    25
100
AcDbCircle
 10
2.3310890881
 20
0.9725
 30
0.0
 40
0.0625
100
AcDbArc
 50
270.0
 51
341.2324093314
  0
CIRCLE
  5
AA
330
1F
100
AcDbEntity
  8
0
  6
Continuous
 62
     7
370
    25
100
AcDbCircle
 10
-4.68
 20
-1.25
 30
0.0
 40
0.0847500000000005
  0
LINE
  5
AB
330
1F
100
AcDbEntity
  8
0
  6
Continuous
 62
     7
370
    25
100
AcDbLine
 10
-4.4266519418
 20
-0.735820176
 30
0.0
 11
-4.2621358177
 21
-0.2517688259
 31
0.0
  0
ARC
  5
AC
330
1F
100
AcDbEntity
  8
0
  6
Continuous
 62
     7
370
    25
100
AcDbCircle
 10
-4.3914055528
 20
-0.7874335664
 30
0.0
 40
0.0625000000000001
100
AcDbArc
 50
124.3288696765
 51
144.6226000085
  0
LINE
  5
AD
330
1F
100
AcDbEntity
  8
0
  6
Continuous
 62
     7
370
    25
100
AcDbLine
 10
-4.6011933649
 20
-0.9749281653
 30
0.0
 11
-4.4423653169
 21
-0.7512485911
 31
0.0
  0
ARC
  5
AE
330
1F
100
AcDbEntity
  8
0
  6
Continuous
 62
     7
370
    25
100
AcDbCircle
 10
-4.652153129
 20
-0.93874319
 30
0.0
 40
0.0625
100
AcDbArc
 50
264.8875926195
 51
324.6226000085
  0
ARC
  5
AF
330
1F
100
AcDbEntity
  8
0
  6
Continuous
 62
     7
370
    25
100
AcDbCircle
 10
-4.68
 20
-1.25
 30
0.0
 40
0.2499999999999998
100
AcDbArc
 50
84.8875926195
 51
118.8269942493
  0
ARC
  5
B0
330
1F
100
AcDbEntity
  8
0
  6
Continuous
 62
     7
370
    25
100
AcDbCircle
 10
-4.8306770258
 20
-0.9762251219
 30
0.0
 40
0.0625000000000003
100
AcDbArc
 50
239.0919868603
 51
298.8269942493
  0
LINE
  5
B1
330
1F
100
AcDbEntity
  8
0
  6
Continuous
 62
     7
370
    25
100
AcDbLine
 10
-5.2067103878
 20
-0.8239467744
 30
0.0
 11
-4.862780854
 21
-1.0298496891
 31
0.0
  0
ARC
  5
B2
330
1F
100
AcDbEntity
  8
0
  6
Continuous
 62
     7
370
    25
100
AcDbCircle
 10
-5.1746065596
 20
-0.7703222072
 30
0.0
 40
0.0624999999999996
100
AcDbArc
 50
161.2166170815
 51
239.0919868603
  0
LINE
  5
B3
330
1F
100
AcDbEntity
  8
0
  6
Continuous
 62
     7
370
    25
100
AcDbLine
 10
-5.0744648134
 20
-0.2817731446
 30
0.0
 11
-5.2337779774
 21
-0.7501977615
 31
0.0
  0
ARC
  5
B4
330
1F
100
AcDbEntity
  8
0
  6
Continuous
 62
     7
370
    25
100
AcDbCircle
 10
-5.0152933956
 20
-0.3018975904
 30
0.0
 40
0.0625
100
AcDbArc
 50
90.0
 51
161.2166170815
  0
LINE
  5
B5
330
1F
100
AcDbEntity
  8
0
  6
Continuous
 62
     7
370
    25
100
AcDbLine
 10
-4.6164909639
 20
-0.2393975904
 30
0.0
 11
-5.0152933956
 21
-0.2393975904
 31
0.0
  0
SPLINE
  5
B6
330
1F
100
AcDbEntity
  8
0
  6
Continuous
 62
     7
370
    25
100
AcDbSpline
210
0.0
220
0.0
230
1.0
 70
     8
 71
     3
 72
    12
 73
     8
 74
     0
 42
0.00000001
 43
0.00000001
 40
0.4186394035225825
 40
0.4186394035225825
 40
0.4186394035225825
 40
0.4186394035225825
 40
0.5083576422643975
 40
0.6256054884338115
 40
0.7443315458751786
 40
0.8682476617455303
 40
1.0
 40
1.0
 40
1.0
 40
1.0
 10
-4.482569152032832
 20
-0.1864077964634646
 30
0.0
 10
-4.488057864392513
 20
-0.1916375193357053
 30
0.0
 10
-4.501447527356951
 20
-0.2029485229040638
 30
0.0
 10
-4.52468038086892
 20
-0.2179254520594109
 30
0.0
 10
-4.552978608973236
 20
-0.22938245018725
 30
0.0
 10
-4.583807008491267
 20
-0.237028289511758
 30
0.0
 10
-4.605375949825876
 20
-0.2385918490767524
 30
0.0
 10
-4.616490963855417
 20
-0.2393975903614695
 30
0.0
  0
ARC
  5
B7
330
1F
100
AcDbEntity
  8
0
  6
Continuous
 62
     7
370
    25
100
AcDbCircle
 10
-4.4394554259
 20
-0.2316566265
 30
0.0
 40
0.0624999999999988
100
AcDbArc
 50
90.0
 51
133.6158317572
  0
LINE
  5
B8
330
1F
100
AcDbEntity
  8
0
  6
Continuous
 62
     7
370
    25
100
AcDbLine
 10
-4.4394554259
 20
-0.1691566265
 30
0.0
 11
-4.3213113991
 21
-0.1691566265
 31
0.0
  0
ARC
  5
B9
330
1F
100
AcDbEntity
  8
0
  6
Continuous
 62
     7
370
    25
100
AcDbCircle
 10
-4.3213113991
 20
-0.2316566265
 30
0.0
 40
0.0625000000000009
100
AcDbArc
 50
341.228474775
 51
90.0
  0
LINE
  5
BA
330
1F
100
AcDbEntity
  8
0
  6
Continuous
 62
     7
370
    25
100
AcDbLine
 10
-5.5338622429
 20
-1.31
 30
0.0
 11
-4.9924899998
 21
-1.31
 31
0.0
  0
ARC
  5
BB
330
1F
100
AcDbEntity
  8
0
  6
Continuous
 62
     7
370
    25
100
AcDbCircle
 10
-5.5338622429
 20
-1.2475
 30
0.0
 40
0.0625
100
AcDbArc
 50
136.5532947434
 51
270.0
  0
LINE
  5
BC
330
1F
100
AcDbEntity
  8
0
  6
Continuous
 62
     7
370
    25
100
AcDbLine
 10
-5.5792381393
 20
-1.2045200277
 30
0.0
 11
-5.3827222848
 21
-0.9970493715
 31
0.0
  0
ARC
  5
BD
330
1F
100
AcDbEntity
  8
0
  6
Continuous
 62
     7
370
    25
100
AcDbCircle
 10
-5.3373463884
 20
-1.0400293439
 30
0.0
 40
0.0625000000000007
100
AcDbArc
 50
59.0919868603
 51
136.5532947434
  0
LINE
  5
BE
330
1F
100
AcDbEntity
  8
0
  6
Continuous
 62
     7
370
    25
100
AcDbLine
 10
-5.3052425601
 20
-0.9864047767
 30
0.0
 11
-4.960376492
 21
-1.1928683735
 31
0.0
  0
ARC
  5
BF
330
1F
100
AcDbEntity
  8
0
  6
Continuous
 62
     7
370
    25
100
AcDbCircle
 10
-4.9924803202
 20
-1.2464929407
 30
0.0
 40
0.0625000000000004
100
AcDbArc
 50
359.3569794713
 51
59.0919868603
  0
ARC
  5
C0
330
1F
100
AcDbEntity
  8
0
  6
Continuous
 62
     7
370
    25
100
AcDbCircle
 10
-4.68
 20
-1.25
 30
0.0
 40
0.2500000000000004
100
AcDbArc
 50
179.3569794713
 51
179.5416288745
  0
ARC
  5
C1
330
1F
100
AcDbEntity
  8
0
  6
Continuous
 62
     7
370
    25
100
AcDbCircle
 10
-4.9924899998
 20
-1.2475
 30
0.0
 40
0.0625000000000006
100
AcDbArc
 50
270.0
 51
359.5416288745
  0
LINE
  5
C2
330
1F
100
AcDbEntity
  8
0
  6
Continuous
 62
     7
370
    25
100
AcDbLine
 10
5.295844517
 20
-1.1680623948
 30
0.0
 11
4.9175848735
 21
-0.892931469
 31
0.0
  0
ARC
  5
C3
330
1F
100
AcDbEntity
  8
0
  6
Continuous
 62
     7
370
    25
100
AcDbCircle
 10
5.2590809016
 20
-1.2186063023
 30
0.0
 40
0.0625000000000028
100
AcDbArc
 50
354.2343497013
 51
53.9693570903
  0
ARC
  5
C4
330
1F
100
AcDbEntity
  8
0
  6
Continuous
 62
     7
370
    25
100
AcDbCircle
 10
5.57
 20
-1.25
 30
0.0
 40
0.2500000000000001
100
AcDbArc
 50
174.2343497013
 51
179.5416288745
  0
ARC
  5
C5
330
1F
100
AcDbEntity
  8
0
  6
Continuous
 62
     7
370
    25
100
AcDbCircle
 10
5.2575100002
 20
-1.2475
 30
0.0
 40
0.0625000000000006
100
AcDbArc
 50
270.0
 51
359.5416288745
  0
LINE
  5
C6
330
1F
100
AcDbEntity
  8
0
  6
Continuous
 62
     7
370
    25
100
AcDbLine
 10
4.5202183735
 20
-1.31
 30
0.0
 11
5.2575100002
 21
-1.31
 31
0.0
  0
ARC
  5
C7
330
1F
100
AcDbEntity
  8
0
  6
Continuous
 62
     7
370
    25
100
AcDbCircle
 10
4.5202183735
 20
-1.2475
 30
0.0
 40
0.0625
100
AcDbArc
 50
180.0
 51
270.0
  0
LINE
  5
C8
330
1F
100
AcDbEntity
  8
0
  6
Continuous
 62
     7
370
    25
100
AcDbLine
 10
4.4577183735
 20
-1.2475
 30
0.0
 11
4.4577183735
 21
-0.9525
 31
0.0
  0
ARC
  5
C9
330
1F
100
AcDbEntity
  8
0
  6
Continuous
 62
     7
370
    25
100
AcDbCircle
 10
4.5202183735
 20
-0.9525
 30
0.0
 40
0.0625000000000009
100
AcDbArc
 50
90.0
 51
180.0
  0
LINE
  5
CA
330
1F
100
AcDbEntity
  8
0
  6
Continuous
 62
     7
370
    25
100
AcDbLine
 10
4.8128388554
 20
-0.89
 30
0.0
 11
4.5202183735
 21
-0.89
 31
0.0
  0
SPLINE
  5
CB
330
1F
100
AcDbEntity
  8
0
  6
Continuous
 62
     7
370
    25
100
AcDbSpline
210
0.0
220
0.0
230
1.0
 70
     8
 71
     3
 72
     9
 73
     5
 74
     0
 42
0.00000001
 43
0.00000001
 40
0.7909757050477081
 40
0.7909757050477081
 40
0.7909757050477081
 40
0.7909757050477081
 40
0.8636186119573114
 40
1.0
 40
1.0
 40
1.0
 40
1.0
 10
4.86551737593024
 20
-0.8828780069913059
 30
0.0
 10
4.859531356665773
 20
-0.8843897777879067
 30
0.0
 10
4.842140034761497
 20
-0.8880043550440366
 30
0.0
 10
4.824408252528885
 20
-0.8892120314096186
 30
0.0
 10
4.812838855421693
 20
-0.8899999999999779
 30
0.0
  0
ARC
  5
CC
330
1F
100
AcDbEntity
  8
0
  6
Continuous
 62
     7
370
    25
100
AcDbCircle
 10
4.8808212581
 20
-0.9434753765
 30
0.0
 40
0.0625000000000024
100
AcDbArc
 50
53.9693570903
 51
104.1736852973
  0
CIRCLE
  5
CD
330
1F
100
AcDbEntity
  8
0
  6
Continuous
 62
     7
370
    25
100
AcDbCircle
 10
5.57
 20
-1.25
 30
0.0
 40
0.0847499999999997
  0
LINE
  5
CE
330
1F
100
AcDbEntity
  8
0
  6
Continuous
 62
     7
370
    25
100
AcDbLine
 10
5.352606622
 20
0.3461445783
 30
0.0
 11
5.158361401
 21
0.3461445783
 31
0.0
  0
ARC
  5
CF
330
1F
100
AcDbEntity
  8
0
  6
Continuous
 62
     7
370
    25
100
AcDbCircle
 10
5.352606622
 20
0.3773945783
 30
0.0
 40
0.03125
100
AcDbArc
 50
270.0
 51
341.2498659018
  0
LINE
  5
D0
330
1F
100
AcDbEntity
  8
0
  6
Continuous
 62
     7
370
    25
100
AcDbLine
 10
5.4649008049
 20
0.6109817731
 30
0.0
 11
5.3821981651
 21
0.3673495258
 31
0.0
  0
ARC
  5
D1
330
1F
100
AcDbEntity
  8
0
  6
Continuous
 62
     7
370
    25
100
AcDbCircle
 10
5.524083891
 20
0.590891668
 30
0.0
 40
0.0625000000000002
100
AcDbArc
 50
81.5508530543
 51
161.2498659018
  0
ARC
  5
D2
330
1F
100
AcDbEntity
  8
0
  6
Continuous
 62
     7
370
    25
100
AcDbCircle
 10
5.57
 20
0.9
 30
0.0
 40
0.2499999999999998
100
AcDbArc
 50
261.5508530543
 51
304.6108770984
  0
ARC
  5
D3
330
1F
100
AcDbEntity
  8
0
  6
Continuous
 62
     7
370
    25
100
AcDbCircle
 10
5.7475
 20
0.642803577
 30
0.0
 40
0.0625000000000002
100
AcDbArc
 50
0.0
 51
124.6108770984
  0
LINE
  5
D4
330
1F
100
AcDbEntity
  8
0
  6
Continuous
 62
     7
370
    25
100
AcDbLine
 10
5.81
 20
-0.992803577
 30
0.0
 11
5.81
 21
0.642803577
 31
0.0
  0
ARC
  5
D5
330
1F
100
AcDbEntity
  8
0
  6
Continuous
 62
     7
370
    25
100
AcDbCircle
 10
5.7475
 20
-0.992803577
 30
0.0
 40
0.0625
100
AcDbArc
 50
235.3891229016
 51
0.0
  0
ARC
  5
D6
330
1F
100
AcDbEntity
  8
0
  6
Continuous
 62
     7
370
    25
100
AcDbCircle
 10
5.57
 20
-1.25
 30
0.0
 40
0.2499999999999998
100
AcDbArc
 50
55.3891229016
 51
113.7043644793
  0
ARC
  5
D7
330
1F
100
AcDbEntity
  8
0
  6
Continuous
 62
     7
370
    25
100
AcDbCircle
 10
5.4443695232
 20
-0.9638650086
 30
0.0
 40
0.0624999999999999
100
AcDbArc
 50
233.9693570903
 51
293.7043644793
  0
LINE
  5
D8
330
1F
100
AcDbEntity
  8
0
  6
Continuous
 62
     7
370
    25
100
AcDbLine
 10
5.4076059078
 20
-1.0144089161
 30
0.0
 11
5.0478016374
 21
-0.75270169
 31
0.0
  0
ARC
  5
D9
330
1F
100
AcDbEntity
  8
0
  6
Continuous
 62
     7
370
    25
100
AcDbCircle
 10
5.0845652528
 20
-0.7021577826
 30
0.0
 40
0.0625000000000003
100
AcDbArc
 50
161.2050285756
 51
233.9693570903
  0
LINE
  5
DA
330
1F
100
AcDbEntity
  8
0
  6
Continuous
 62
     7
370
    25
100
AcDbLine
 10
5.1567771084
 20
-0.2959864458
 30
0.0
 11
5.0253979066
 21
-0.6820213694
 31
0.0
  0
SPLINE
  5
DB
330
1F
100
AcDbEntity
  8
0
  6
Continuous
 62
     7
370
    25
100
AcDbSpline
210
0.0
220
0.0
230
1.0
 70
     8
 71
     3
 72
    15
 73
    11
 74
     0
 42
0.00000001
 43
0.00000001
 40
0.0
 40
0.0
 40
0.0
 40
0.0
 40
0.1092500978221939
 40
0.2204941404783849
 40
0.3316483252502417
 40
0.4486491817639673
 40
0.573839579434866
 40
0.7063957483509645
 40
0.8479908858315315
 40
1.0
 40
1.0
 40
1.0
 40
1.0
 10
5.148983433734943
 20
-0.1502786144578077
 30
0.0
 10
5.151962215664037
 20
-0.1549406760918068
 30
0.0
 10
5.157974145851931
 20
-0.1643498875555706
 30
0.0
 10
5.164168072302486
 20
-0.1800080226519796
 30
0.0
 10
5.168819177037665
 20
-0.1965543664238503
 30
0.0
 10
5.170784795538992
 20
-0.2143914987171994
 30
0.0
 10
5.170164974618386
 20
-0.2333444826062248
 30
0.0
 10
5.168291553076125
 20
-0.2534584581287551
 30
0.0
 10
5.163801427770969
 20
-0.2745816185188138
 30
0.0
 10
5.159173267620144
 20
-0.2886847598801167
 30
0.0
 10
5.156777108433739
 20
-0.2959864457831088
 30
0.0
  0
LINE
  5
DC
330
1F
100
AcDbEntity
  8
0
  6
Continuous
 62
     7
370
    25
100
AcDbLine
 10
4.8113846922
 20
0.3310407341
 30
0.0
 11
5.1489834337
 21
-0.1502786145
 31
0.0
  0
ARC
  5
DD
330
1F
100
AcDbEntity
  8
0
  6
Continuous
 62
     7
370
    25
100
AcDbCircle
 10
4.8625529429
 20
0.3669302887
 30
0.0
 40
0.0625000000000006
100
AcDbArc
 50
161.2671555277
 51
215.0459275021
  0
LINE
  5
DE
330
1F
100
AcDbEntity
  8
0
  6
Continuous
 62
     7
370
    25
100
AcDbLine
 10
4.8780817635
 20
0.6073312812
 30
0.0
 11
4.8033637971
 21
0.3870025337
 31
0.0
  0
ARC
  5
DF
330
1F
100
AcDbEntity
  8
0
  6
Continuous
 62
     7
370
    25
100
AcDbCircle
 10
4.9372709093
 20
0.5872590361
 30
0.0
 40
0.0625
100
AcDbArc
 50
90.0
 51
161.2671555277
  0
LINE
  5
E0
330
1F
100
AcDbEntity
  8
0
  6
Continuous
 62
     7
370
    25
100
AcDbLine
 10
5.1305663547
 20
0.6497590361
 30
0.0
 11
4.9372709093
 21
0.6497590361
 31
0.0
  0
ARC
  5
E1
330
1F
100
AcDbEntity
  8
0
  6
Continuous
 62
     7
370
    25
100
AcDbCircle
 10
5.1305663547
 20
0.5872590361
 30
0.0
 40
0.0625
100
AcDbArc
 50
341.2586595548
 51
90.0
  0
LINE
  5
E2
330
1F
100
AcDbEntity
  8
0
  6
Continuous
 62
     7
370
    25
100
AcDbLine
 10
5.1287683166
 20
0.3874350891
 30
0.0
 11
5.1897525235
 21
0.5671780146
 31
0.0
  0
ARC
  5
E3
330
1F
100
AcDbEntity
  8
0
  6
Continuous
 62
     7
370
    25
100
AcDbCircle
 10
5.158361401
 20
0.3773945783
 30
0.0
 40
0.0312499999999999
100
AcDbArc
 50
161.2586595548
 51
270.0
  0
CIRCLE
  5
E4
330
1F
100
AcDbEntity
  8
0
  6
Continuous
 62
     7
370
    25
100
AcDbCircle
 10
-5.8125
 20
1.3485
 30
0.0
 40
0.0847500000000005
  0
LINE
  5
E5
330
1F
100
AcDbEntity
  8
0
  6
Continuous
 62
     7
370
    25
100
AcDbLine
 10
-3.9842394578
 20
-0.89
 30
0.0
 11
-4.275587215
 21
-0.89
 31
0.0
  0
ARC
  5
E6
330
1F
100
AcDbEntity
  8
0
  6
Continuous
 62
     7
370
    25
100
AcDbCircle
 10
-3.9842394578
 20
-0.9525
 30
0.0
 40
0.0625000000000009
100
AcDbArc
 50
0.0
 51
90.0
  0
LINE
  5
E7
330
1F
100
AcDbEntity
  8
0
  6
Continuous
 62
     7
370
    25
100
AcDbLine
 10
-3.9217394578
 20
-0.9525
 30
0.0
 11
-3.9217394578
 21
-1.2475
 31
0.0
  0
ARC
  5
E8
330
1F
100
AcDbEntity
  8
0
  6
Continuous
 62
     7
370
    25
100
AcDbCircle
 10
-3.9842394578
 20
-1.2475
 30
0.0
 40
0.0625000000000004
100
AcDbArc
 50
270.0
 51
0.0
  0
LINE
  5
E9
330
1F
100
AcDbEntity
  8
0
  6
Continuous
 62
     7
370
    25
100
AcDbLine
 10
-4.3675100002
 20
-1.31
 30
0.0
 11
-3.9842394578
 21
-1.31
 31
0.0
  0
ARC
  5
EA
330
1F
100
AcDbEntity
  8
0
  6
Continuous
 62
     7
370
    25
100
AcDbCircle
 10
-4.3675100002
 20
-1.2475
 30
0.0
 40
0.0625000000000006
100
AcDbArc
 50
180.4583711255
 51
270.0
  0
ARC
  5
EB
330
1F
100
AcDbEntity
  8
0
  6
Continuous
 62
     7
370
    25
100
AcDbCircle
 10
-4.68
 20
-1.25
 30
0.0
 40
0.2499999999999999
100
AcDbArc
 50
0.4583711255
 51
24.3576073975
  0
ARC
  5
EC
330
1F
100
AcDbEntity
  8
0
  6
Continuous
 62
     7
370
    25
100
AcDbCircle
 10
-4.3953159176
 20
-1.1211154654
 30
0.0
 40
0.0625000000000001
100
AcDbArc
 50
144.6226000085
 51
204.3576073975
  0
LINE
  5
ED
330
1F
100
AcDbEntity
  8
0
  6
Continuous
 62
     7
370
    25
100
AcDbLine
 10
-4.4462756818
 20
-1.0849304901
 30
0.0
 11
-4.3265469792
 21
-0.9163150247
 31
0.0
  0
ARC
  5
EE
330
1F
100
AcDbEntity
  8
0
  6
Continuous
 62
     7
370
    25
100
AcDbCircle
 10
-4.275587215
 20
-0.9525
 30
0.0
 40
0.0625000000000001
100
AcDbArc
 50
90.0
 51
144.6226000085
  0
LINE
  5
EF
330
1F
100
AcDbEntity
  8
0
  6
Continuous
 62
     7
370
    25
100
AcDbLine
 10
6.0
 20
1.5
 30
0.0
 11
-6.0
 21
1.5
 31
0.0
  0
LINE
  5
F0
330
1F
100
AcDbEntity
  8
0
  6
Continuous
 62
     7
370
    25
100
AcDbLine
 10
-6.0
 20
1.5
 30
0.0
 11
-6.0
 21
-1.5
 31
0.0
  0
LINE
  5
F1
330
1F
100
AcDbEntity
  8
0
  6
Continuous
 62
     7
370
    25
100
AcDbLine
 10
-6.0
 20
-1.5
 30
0.0
 11
6.0
 21
-1.5
 31
0.0
  0
LINE
  5
F2
330
1F
100
AcDbEntity
  8
0
  6
Continuous
 62
     7
370
    25
100
AcDbLine
 10
6.0
 20
-1.5
 30
0.0
 11
6.0
 21
1.5
 31
0.0
  0
LINE
  5
F3
330
1F
100
AcDbEntity
  8
0
  6
Continuous
 62
     7
370
    25
100
AcDbLine
 10
-3.9297816265
 20
1.31
 30
0.0
 11
-4.5225
 21
1.31
 31
0.0
  0
ARC
  5
F4
330
1F
100
AcDbEntity
  8
0
  6
Continuous
 62
     7
370
    25
100
AcDbCircle
 10
-3.9297816265
 20
1.2475
 30
0.0
 40
0.0625000000000004
100
AcDbArc
 50
0.0
 51
90.0
  0
LINE
  5
F5
330
1F
100
AcDbEntity
  8
0
  6
Continuous
 62
     7
370
    25
100
AcDbLine
 10
-3.8672816265
 20
1.2475
 30
0.0
 11
-3.8672816265
 21
0.9203308523
 31
0.0
  0
ARC
  5
F6
330
1F
100
AcDbEntity
  8
0
  6
Continuous
 62
     7
370
    25
100
AcDbCircle
 10
-3.9297816265
 20
0.9203308523
 30
0.0
 40
0.0625
100
AcDbArc
 50
341.228474775
 51
0.0
  0
LINE
  5
F7
330
1F
100
AcDbEntity
  8
0
  6
Continuous
 62
     7
370
    25
100
AcDbLine
 10
-4.1550757319
 20
0.0632311741
 30
0.0
 11
-3.8706060451
 21
0.9002186529
 31
0.0
  0
ARC
  5
F8
330
1F
100
AcDbEntity
  8
0
  6
Continuous
 62
     7
370
    25
100
AcDbCircle
 10
-4.2142513133
 20
0.0833433735
 30
0.0
 40
0.0625
100
AcDbArc
 50
270.0
 51
341.228474775
  0
LINE
  5
F9
330
1F
100
AcDbEntity
  8
0
  6
Continuous
 62
     7
370
    25
100
AcDbLine
 10
-4.2989490728
 20
0.0208433735
 30
0.0
 11
-4.2142513133
 21
0.0208433735
 31
0.0
  0
ARC
  5
FA
330
1F
100
AcDbEntity
  8
0
  6
Continuous
 62
     7
370
    25
100
AcDbCircle
 10
-4.2989490728
 20
0.0833433735
 30
0.0
 40
0.0625000000000002
100
AcDbArc
 50
161.2292063745
 51
270.0
  0
LINE
  5
FB
330
1F
100
AcDbEntity
  8
0
  6
Continuous
 62
     7
370
    25
100
AcDbLine
 10
-4.1322665663
 20
0.7680195783
 30
0.0
 11
-4.358124911
 21
0.1034548173
 31
0.0
  0
SPLINE
  5
FC
330
1F
100
AcDbEntity
  8
0
  6
Continuous
 62
     7
370
    25
100
AcDbSpline
210
0.0
220
0.0
230
1.0
 70
     8
 71
     3
 72
    15
 73
    11
 74
     0
 42
0.00000001
 43
0.00000001
 40
0.0
 40
0.0
 40
0.0
 40
0.0
 40
0.1483262009759448
 40
0.2765170782738003
 40
0.3868457783080735
 40
0.4889701119151622
 40
0.5926252478324077
 40
0.708795185157171
 40
0.8420071705523932
 40
1.0
 40
1.0
 40
1.0
 40
1.0
 10
-4.22612951807229
 20
0.9099999999999782
 30
0.0
 10
-4.215796024254868
 20
0.9092328072180886
 30
0.0
 10
-4.196531811324496
 20
0.9078025682911496
 30
0.0
 10
-4.170381777039926
 20
0.9005166847177658
 30
0.0
 10
-4.149166192169701
 20
0.8890397192893571
 30
0.0
 10
-4.134405470325195
 20
0.8721673149989227
 30
0.0
 10
-4.124703565689865
 20
0.8515548905548108
 30
0.0
 10
-4.121912387339857
 20
0.8267822435206176
 30
0.0
 10
-4.124198155304959
 20
0.7983390076426552
 30
0.0
 10
-4.129428726189683
 20
0.7786835977885767
 30
0.0
 10
-4.13226656626506
 20
0.7680195783132314
 30
0.0
  0
LINE
  5
FD
330
1F
100
AcDbEntity
  8
0
  6
Continuous
 62
     7
370
    25
100
AcDbLine
 10
-4.3760263169
 20
0.91
 30
0.0
 11
-4.2261295181
 21
0.91
 31
0.0
  0
ARC
  5
FE
330
1F
100
AcDbEntity
  8
0
  6
Continuous
 62
     7
370
    25
100
AcDbCircle
 10
-4.3760263169
 20
0.9725
 30
0.0
 40
0.0624999999999999
100
AcDbArc
 50
193.4148487562
 51
270.0
  0
ARC
  5
FF
330
1F
100
AcDbEntity
  8
0
  6
Continuous
 62
     7
370
    25
100
AcDbCircle
 10
-4.68
 20
0.9
 30
0.0
 40
0.2500000000000003
100
AcDbArc
 50
13.4148487562
 51
59.735007389
  0
ARC
  5
100
330
1F
100
AcDbEntity
  8
0
  6
Continuous
 62
     7
370
    25
100
AcDbCircle
 10
-4.5225
 20
1.1699073915
 30
0.0
 40
0.0625
100
AcDbArc
 50
180.0
 51
239.735007389
  0
LINE
  5
101
330
1F
100
AcDbEntity
  8
0
  6
Continuous
 62
     7
370
    25
100
AcDbLine
 10
-4.585
 20
1.2475
 30
0.0
 11
-4.585
 21
1.1699073915
 31
0.0
  0
ARC
  5
102
330
1F
100
AcDbEntity
  8
0
  6
Continuous
 62
     7
370
    25
100
AcDbCircle
 10
-4.5225
 20
1.2475
 30
0.0
 40
0.0625
100
AcDbArc
 50
90.0
 51
180.0
  0
LINE
  5
103
330
1F
100
AcDbEntity
  8
0
  6
Continuous
 62
     7
370
    25
100
AcDbLine
 10
-3.6087021098
 20
0.9051103525
 30
0.0
 11
-4.1021642634
 21
-0.5471513224
 31
0.0
  0
ARC
  5
104
330
1F
100
AcDbEntity
  8
0
  6
Continuous
 62
     7
370
    25
100
AcDbCircle
 10
-3.6382906627
 20
0.9151642094
 30
0.0
 40
0.0312500000000004
100
AcDbArc
 50
341.2328179083
 51
0.0
  0
LINE
  5
105
330
1F
100
AcDbEntity
  8
0
  6
Continuous
 62
     7
370
    25
100
AcDbLine
 10
-3.6070406627
 20
0.9151642094
 30
0.0
 11
-3.6070406627
 21
1.2475
 31
0.0
  0
ARC
  5
106
330
1F
100
AcDbEntity
  8
0
  6
Continuous
 62
     7
370
    25
100
AcDbCircle
 10
-3.5445406627
 20
1.2475
 30
0.0
 40
0.0625000000000004
100
AcDbArc
 50
90.0
 51
180.0
  0
LINE
  5
107
330
1F
100
AcDbEntity
  8
0
  6
Continuous
 62
     7
370
    25
100
AcDbLine
 10
-3.3008659639
 20
1.31
 30
0.0
 11
-3.5445406627
 21
1.31
 31
0.0
  0
ARC
  5
108
330
1F
100
AcDbEntity
  8
0
  6
Continuous
 62
     7
370
    25
100
AcDbCircle
 10
-3.3008659639
 20
1.2475
 30
0.0
 40
0.0625
100
AcDbArc
 50
0.0
 51
90.0
  0
LINE
  5
109
330
1F
100
AcDbEntity
  8
0
  6
Continuous
 62
     7
370
    25
100
AcDbLine
 10
-3.2383659639
 20
1.2475
 30
0.0
 11
-3.2383659639
 21
0.9203284188
 31
0.0
  0
ARC
  5
10A
330
1F
100
AcDbEntity
  8
0
  6
Continuous
 62
     7
370
    25
100
AcDbCircle
 10
-3.3008659639
 20
0.9203284188
 30
0.0
 40
0.0625000000000004
100
AcDbArc
 50
341.2328179083
 51
0.0
  0
LINE
  5
10B
330
1F
100
AcDbEntity
  8
0
  6
Continuous
 62
     7
370
    25
100
AcDbLine
 10
-3.7471543137
 20
-0.5873667499
 30
0.0
 11
-3.2416888581
 21
0.9002207051
 31
0.0
  0
ARC
  5
10C
330
1F
100
AcDbEntity
  8
0
  6
Continuous
 62
     7
370
    25
100
AcDbCircle
 10
-3.8063314195
 20
-0.5672590361
 30
0.0
 40
0.0625000000000003
100
AcDbArc
 50
270.0
 51
341.2328179083
  0
LINE
  5
10D
330
1F
100
AcDbEntity
  8
0
  6
Continuous
 62
     7
370
    25
100
AcDbLine
 10
-4.0429871576
 20
-0.6297590361
 30
0.0
 11
-3.8063314195
 21
-0.6297590361
 31
0.0
  0
ARC
  5
10E
330
1F
100
AcDbEntity
  8
0
  6
Continuous
 62
     7
370
    25
100
AcDbCircle
 10
-4.0429871576
 20
-0.5672590361
 30
0.0
 40
0.0624999999999999
100
AcDbArc
 50
161.2328179083
 51
270.0
  0
LINE
  5
10F
330
1F
100
AcDbEntity
  8
0
  6
Continuous
 62
     7
370
    25
100
AcDbLine
 10
-1.6400262564
 20
-0.8716055304
 30
0.0
 11
-1.7141220938
 21
-0.2145859827
 31
0.0
  0
ARC
  5
110
330
1F
100
AcDbEntity
  8
0
  6
Continuous
 62
     7
370
    25
100
AcDbCircle
 10
-1.608973105
 20
-0.8681034896
 30
0.0
 40
0.0312499999999999
100
AcDbArc
 50
186.4343851062
 51
247.7155145511
  0
LINE
  5
111
330
1F
100
AcDbEntity
  8
0
  6
Continuous
 62
     7
370
    25
100
AcDbLine
 10
-1.6208232805
 20
-0.8970195031
 30
0.0
 11
-1.1607731989
 21
-1.0855542822
 31
0.0
  0
ARC
  5
112
330
1F
100
AcDbEntity
  8
0
  6
Continuous
 62
     7
370
    25
100
AcDbCircle
 10
-1.18447355
 20
-1.1433863093
 30
0.0
 40
0.0625
100
AcDbArc
 50
7.9805071621
 51
67.7155145511
  0
ARC
  5
113
330
1F
100
AcDbEntity
  8
0
  6
Continuous
 62
     7
370
    25
100
AcDbCircle
 10
-0.875
 20
-1.1
 30
0.0
 40
0.2500000000000002
100
AcDbArc
 50
187.9805071621
 51
208.1641993696
  0
ARC
  5
114
330
1F
100
AcDbEntity
  8
0
  6
Continuous
 62
     7
370
    25
100
AcDbCircle
 10
-1.1504995463
 20
-1.2475
 30
0.0
 40
0.0625
100
AcDbArc
 50
270.0
 51
28.1641993696
  0
LINE
  5
115
330
1F
100
AcDbEntity
  8
0
  6
Continuous
 62
     7
370
    25
100
AcDbLine
 10
-1.944126506
 20
-1.31
 30
0.0
 11
-1.1504995463
 21
-1.31
 31
0.0
  0
ARC
  5
116
330
1F
100
AcDbEntity
  8
0
  6
Continuous
 62
     7
370
    25
100
AcDbCircle
 10
-1.944126506
 20
-1.2475
 30
0.0
 40
0.0625
100
AcDbArc
 50
180.0
 51
270.0
  0
LINE
  5
117
330
1F
100
AcDbEntity
  8
0
  6
Continuous
 62
     7
370
    25
100
AcDbLine
 10
-2.006626506
 20
-1.2475
 30
0.0
 11
-2.006626506
 21
-0.9003342594
 31
0.0
  0
ARC
  5
118
330
1F
100
AcDbEntity
  8
0
  6
Continuous
 62
     7
370
    25
100
AcDbCircle
 10
-1.944126506
 20
-0.9003342594
 30
0.0
 40
0.0625000000000001
100
AcDbArc
 50
161.2223942336
 51
180.0
  0
LINE
  5
119
330
1F
100
AcDbEntity
  8
0
  6
Continuous
 62
     7
370
    25
100
AcDbLine
 10
-1.7747619685
 20
-0.2080287838
 30
0.0
 11
-2.0032999527
 21
-0.88021578
 31
0.0
  0
ARC
  5
11A
330
1F
100
AcDbEntity
  8
0
  6
Continuous
 62
     7
370
    25
100
AcDbCircle
 10
-1.7451752452
 20
-0.2180880235
 30
0.0
 40
0.0312499999999998
100
AcDbArc
 50
6.4343851062
 51
161.2223942336
  0
LINE
  5
11B
330
1F
100
AcDbEntity
  8
0
  6
Continuous
 62
     7
370
    25
100
AcDbLine
 10
4.502141192
 20
0.905110256
 30
0.0
 11
4.3861345322
 21
0.5637100471
 31
0.0
  0
ARC
  5
11C
330
1F
100
AcDbEntity
  8
0
  6
Continuous
 62
     7
370
    25
100
AcDbCircle
 10
4.4725527108
 20
0.9151643239
 30
0.0
 40
0.0312500000000009
100
AcDbArc
 50
341.2324093314
 51
0.0
  0
LINE
  5
11D
330
1F
100
AcDbEntity
  8
0
  6
Continuous
 62
     7
370
    25
100
AcDbLine
 10
4.5038027108
 20
0.9151643239
 30
0.0
 11
4.5038027108
 21
1.2475
 31
0.0
  0
ARC
  5
11E
330
1F
100
AcDbEntity
  8
0
  6
Continuous
 62
     7
370
    25
100
AcDbCircle
 10
4.5663027108
 20
1.2475
 30
0.0
 40
0.0625
100
AcDbArc
 50
90.0
 51
180.0
  0
LINE
  5
11F
330
1F
100
AcDbEntity
  8
0
  6
Continuous
 62
     7
370
    25
100
AcDbLine
 10
5.7475
 20
1.31
 30
0.0
 11
4.5663027108
 21
1.31
 31
0.0
  0
ARC
  5
120
330
1F
100
AcDbEntity
  8
0
  6
Continuous
 62
     7
370
    25
100
AcDbCircle
 10
5.7475
 20
1.2475
 30
0.0
 40
0.0625
100
AcDbArc
 50
0.0
 51
90.0
  0
LINE
  5
121
330
1F
100
AcDbEntity
  8
0
  6
Continuous
 62
     7
370
    25
100
AcDbLine
 10
5.81
 20
1.157196423
 30
0.0
 11
5.81
 21
1.2475
 31
0.0
  0
ARC
  5
122
330
1F
100
AcDbEntity
  8
0
  6
Continuous
 62
     7
370
    25
100
AcDbCircle
 10
5.7475
 20
1.157196423
 30
0.0
 40
0.0625
100
AcDbArc
 50
235.3891229016
 51
0.0
  0
ARC
  5
123
330
1F
100
AcDbEntity
  8
0
  6
Continuous
 62
     7
370
    25
100
AcDbCircle
 10
5.57
 20
0.9
 30
0.0
 40
0.2500000000000007
100
AcDbArc
 50
55.3891229016
 51
166.5851512438
  0
ARC
  5
124
330
1F
100
AcDbEntity
  8
0
  6
Continuous
 62
     7
370
    25
100
AcDbCircle
 10
5.2660263169
 20
0.9725
 30
0.0
 40
0.0625
100
AcDbArc
 50
270.0
 51
346.5851512438
  0
LINE
  5
125
330
1F
100
AcDbEntity
  8
0
  6
Continuous
 62
     7
370
    25
100
AcDbLine
 10
4.8626506024
 20
0.91
 30
0.0
 11
5.2660263169
 21
0.91
 31
0.0
  0
SPLINE
  5
126
330
1F
100
AcDbEntity
  8
0
  6
Continuous
 62
     7
370
    25
100
AcDbSpline
210
0.0
220
0.0
230
1.0
 70
     8
 71
     3
 72
    15
 73
    11
 74
     0
 42
0.00000001
 43
0.00000001
 40
0.0
 40
0.0
 40
0.0
 40
0.0
 40
0.1366537749371797
 40
0.2624235883700483
 40
0.3835824027905228
 40
0.5005017548303459
 40
0.6171557683973945
 40
0.7377432485463437
 40
0.8636186119573115
 40
1.0
 40
1.0
 40
1.0
 40
1.0
 10
4.672552710843373
 20
0.7680195783132742
 30
0.0
 10
4.67666635686229
 20
0.7788813601014338
 30
0.0
 10
4.684566012397339
 20
0.7997398234278335
 30
0.0
 10
4.700826336351369
 20
0.8281042306862394
 30
0.0
 10
4.720069689753013
 20
0.8524635912165403
 30
0.0
 10
4.742945202292969
 20
0.8722331766960776
 30
0.0
 10
4.768272063843877
 20
0.888711510125827
 30
0.0
 10
4.79713890061069
 20
0.8999537168454815
 30
0.0
 10
4.82883364978805
 20
0.9076967947214241
 30
0.0
 10
4.851081205302445
 20
0.9092120314096628
 30
0.0
 10
4.862650602409638
 20
0.9100000000000222
 30
0.0
  0
LINE
  5
127
330
1F
100
AcDbEntity
  8
0
  6
Continuous
 62
     7
370
    25
100
AcDbLine
 10
4.5805980645
 20
0.497616129
 30
0.0
 11
4.6725527108
 21
0.7680195783
 31
0.0
  0
ARC
  5
128
330
1F
100
AcDbEntity
  8
0
  6
Continuous
 62
     7
370
    25
100
AcDbCircle
 10
4.5214259334
 20
0.5177384773
 30
0.0
 40
0.0625000000000002
100
AcDbArc
 50
251.2324093314
 51
341.2186480247
  0
LINE
  5
129
330
1F
100
AcDbEntity
  8
0
  6
Continuous
 62
     7
370
    25
100
AcDbLine
 10
4.5013177977
 20
0.4585615149
 30
0.0
 11
4.4252033588
 21
0.484424949
 31
0.0
  0
ARC
  5
12A
330
1F
100
AcDbEntity
  8
0
  6
Continuous
 62
     7
370
    25
100
AcDbCircle
 10
4.4453114946
 20
0.5436019114
 30
0.0
 40
0.0624999999999999
100
AcDbArc
 50
161.2324093314
 51
251.2324093314
  0
LINE
  5
12B
330
1F
100
AcDbEntity
  8
0
  6
Continuous
 62
     7
370
    25
100
AcDbLine
 10
3.6335892297
 20
-0.885110256
 30
0.0
 11
3.8877977877
 21
-0.1369906659
 31
0.0
  0
ARC
  5
12C
330
1F
100
AcDbEntity
  8
0
  6
Continuous
 62
     7
370
    25
100
AcDbCircle
 10
3.6631777108
 20
-0.8951643239
 30
0.0
 40
0.0312499999999995
100
AcDbArc
 50
161.2324093314
 51
180.0
  0
LINE
  5
12D
330
1F
100
AcDbEntity
  8
0
  6
Continuous
 62
     7
370
    25
100
AcDbLine
 10
3.6319277108
 20
-0.8951643239
 30
0.0
 11
3.6319277108
 21
-1.2475
 31
0.0
  0
ARC
  5
12E
330
1F
100
AcDbEntity
  8
0
  6
Continuous
 62
     7
370
    25
100
AcDbCircle
 10
3.5694277108
 20
-1.2475
 30
0.0
 40
0.0625000000000004
100
AcDbArc
 50
270.0
 51
0.0
  0
LINE
  5
12F
330
1F
100
AcDbEntity
  8
0
  6
Continuous
 62
     7
370
    25
100
AcDbLine
 10
3.5209337349
 20
-1.31
 30
0.0
 11
3.5694277108
 21
-1.31
 31
0.0
  0
ARC
  5
130
330
1F
100
AcDbEntity
  8
0
  6
Continuous
 62
     7
370
    25
100
AcDbCircle
 10
3.5209337349
 20
-1.2475
 30
0.0
 40
0.0625000000000004
100
AcDbArc
 50
180.0
 51
270.0
  0
LINE
  5
131
330
1F
100
AcDbEntity
  8
0
  6
Continuous
 62
     7
370
    25
100
AcDbLine
 10
3.4584337349
 20
-1.2475
 30
0.0
 11
3.4584337349
 21
-0.8906037014
 31
0.0
  0
ARC
  5
132
330
1F
100
AcDbEntity
  8
0
  6
Continuous
 62
     7
370
    25
100
AcDbCircle
 10
3.4271837349
 20
-0.8906037014
 30
0.0
 40
0.0312500000000002
100
AcDbArc
 50
0.0
 51
2.2134554612
  0
LINE
  5
133
330
1F
100
AcDbEntity
  8
0
  6
Continuous
 62
     7
370
    25
100
AcDbLine
 10
3.4290523729
 20
-0.1298353991
 30
0.0
 11
3.4584104185
 21
-0.889396749
 31
0.0
  0
ARC
  5
134
330
1F
100
AcDbEntity
  8
0
  6
Continuous
 62
     7
370
    25
100
AcDbCircle
 10
3.49150574
 20
-0.1274214943
 30
0.0
 40
0.0625
100
AcDbArc
 50
91.5010872454
 51
182.2134554612
  0
SPLINE
  5
135
330
1F
100
AcDbEntity
  8
0
  6
Continuous
 62
     7
370
    25
100
AcDbSpline
210
0.0
220
0.0
230
1.0
 70
     8
 71
     3
 72
    13
 73
     9
 74
     0
 42
0.00000001
 43
0.00000001
 40
0.1017125924088953
 40
0.1017125924088953
 40
0.1017125924088953
 40
0.1017125924088953
 40
0.160549494008493
 40
0.263788998282235
 40
0.3806465194462236
 40
0.5131873622313033
 40
0.65963659436181
 40
0.6706294071779278
 40
0.6706294071779278
 40
0.6706294071779278
 40
0.6706294071779278
 10
3.598683139026841
 20
-0.0555094921258007
 30
0.0
 10
3.594982257758733
 20
-0.0562219686551952
 30
0.0
 10
3.584734536462052
 20
-0.0579346188455727
 30
0.0
 10
3.567041227591311
 20
-0.0604486455256598
 30
0.0
 10
3.544519756313365
 20
-0.0622955633799535
 30
0.0
 10
3.519225618133971
 20
-0.064099720487513
 30
0.0
 10
3.50065499618172
 20
-0.0646575900200858
 30
0.0
 10
3.490572470364949
 20
-0.0649244949165536
 30
0.0
 10
3.489868495146157
 20
-0.0649429425242288
 30
0.0
  0
ARC
  5
136
330
1F
100
AcDbEntity
  8
0
  6
Continuous
 62
     7
370
    25
100
AcDbCircle
 10
3.6104983922
 20
-0.1168825301
 30
0.0
 40
0.0625000000000004
100
AcDbArc
 50
90.0
 51
100.8970013487
  0
LINE
  5
137
330
1F
100
AcDbEntity
  8
0
  6
Continuous
 62
     7
370
    25
100
AcDbLine
 10
3.8286208253
 20
-0.0543825301
 30
0.0
 11
3.6104983922
 21
-0.0543825301
 31
0.0
  0
ARC
  5
138
330
1F
100
AcDbEntity
  8
0
  6
Continuous
 62
     7
370
    25
100
AcDbCircle
 10
3.8286208253
 20
-0.1168825301
 30
0.0
 40
0.0625000000000001
100
AcDbArc
 50
341.2324093314
 51
90.0
  0
LINE
  5
139
330
1F
100
AcDbEntity
  8
0
  6
Continuous
 62
     7
370
    25
100
AcDbLine
 10
-2.298869717
 20
-0.3457660761
 30
0.0
 11
-2.3239740912
 21
-0.4196124261
 31
0.0
  0
ARC
  5
13A
330
1F
100
AcDbEntity
  8
0
  6
Continuous
 62
     7
370
    25
100
AcDbCircle
 10
-2.3284567786
 20
-0.3357078313
 30
0.0
 40
0.0312499999999999
100
AcDbArc
 50
341.2243209149
 51
90.0
  0
LINE
  5
13B
330
1F
100
AcDbEntity
  8
0
  6
Continuous
 62
     7
370
    25
100
AcDbLine
 10
-2.5226770746
 20
-0.3044578313
 30
0.0
 11
-2.3284567786
 21
-0.3044578313
 31
0.0
  0
ARC
  5
13C
330
1F
100
AcDbEntity
  8
0
  6
Continuous
 62
     7
370
    25
100
AcDbCircle
 10
-2.5226770746
 20
-0.3357078313
 30
0.0
 40
0.03125
100
AcDbArc
 50
90.0
 51
161.2433689578
  0
LINE
  5
13D
330
1F
100
AcDbEntity
  8
0
  6
Continuous
 62
     7
370
    25
100
AcDbLine
 10
-2.641135224
 20
-0.5873558521
 30
0.0
 11
-2.5522674784
 21
-0.3256594234
 31
0.0
  0
ARC
  5
13E
330
1F
100
AcDbEntity
  8
0
  6
Continuous
 62
     7
370
    25
100
AcDbCircle
 10
-2.7003160316
 20
-0.5672590361
 30
0.0
 40
0.0625000000000009
100
AcDbArc
 50
270.0
 51
341.2433689578
  0
LINE
  5
13F
330
1F
100
AcDbEntity
  8
0
  6
Continuous
 62
     7
370
    25
100
AcDbLine
 10
-2.9369639856
 20
-0.6297590361
 30
0.0
 11
-2.7003160316
 21
-0.6297590361
 31
0.0
  0
ARC
  5
140
330
1F
100
AcDbEntity
  8
0
  6
Continuous
 62
     7
370
    25
100
AcDbCircle
 10
-2.9369639856
 20
-0.5672590361
 30
0.0
 40
0.0625000000000002
100
AcDbArc
 50
161.2333926893
 51
270.0
  0
LINE
  5
141
330
1F
100
AcDbEntity
  8
0
  6
Continuous
 62
     7
370
    25
100
AcDbLine
 10
-2.6038619799
 20
0.6073661562
 30
0.0
 11
-2.9961412931
 21
-0.547151916
 31
0.0
  0
ARC
  5
142
330
1F
100
AcDbEntity
  8
0
  6
Continuous
 62
     7
370
    25
100
AcDbCircle
 10
-2.5446846724
 20
0.5872590361
 30
0.0
 40
0.0625000000000001
100
AcDbArc
 50
90.0
 51
161.2333926893
  0
LINE
  5
143
330
1F
100
AcDbEntity
  8
0
  6
Continuous
 62
     7
370
    25
100
AcDbLine
 10
-2.3080124422
 20
0.6497590361
 30
0.0
 11
-2.5446846724
 21
0.6497590361
 31
0.0
  0
ARC
  5
144
330
1F
100
AcDbEntity
  8
0
  6
Continuous
 62
     7
370
    25
100
AcDbCircle
 10
-2.3080124422
 20
0.5872590361
 30
0.0
 40
0.0625000000000001
100
AcDbArc
 50
341.2433689578
 51
90.0
  0
LINE
  5
145
330
1F
100
AcDbEntity
  8
0
  6
Continuous
 62
     7
370
    25
100
AcDbLine
 10
-2.317225749
 20
0.3657562393
 30
0.0
 11
-2.2488316346
 21
0.5671622202
 31
0.0
  0
ARC
  5
146
330
1F
100
AcDbEntity
  8
0
  6
Continuous
 62
     7
370
    25
100
AcDbCircle
 10
-2.2876353452
 20
0.3557078313
 30
0.0
 40
0.0312500000000001
100
AcDbArc
 50
161.2433689578
 51
270.0
  0
LINE
  5
147
330
1F
100
AcDbEntity
  8
0
  6
Continuous
 62
     7
370
    25
100
AcDbLine
 10
-2.0933918723
 20
0.3244578313
 30
0.0
 11
-2.2876353452
 21
0.3244578313
 31
0.0
  0
ARC
  5
148
330
1F
100
AcDbEntity
  8
0
  6
Continuous
 62
     7
370
    25
100
AcDbCircle
 10
-2.0933918723
 20
0.3557078313
 30
0.0
 40
0.0312499999999999
100
AcDbArc
 50
270.0
 51
341.2243209149
  0
LINE
  5
149
330
1F
100
AcDbEntity
  8
0
  6
Continuous
 62
     7
370
    25
100
AcDbLine
 10
-1.9202183735
 20
0.7680195783
 30
0.0
 11
-2.0638048107
 21
0.3456495866
 31
0.0
  0
SPLINE
  5
14A
330
1F
100
AcDbEntity
  8
0
  6
Continuous
 62
     7
370
    25
100
AcDbSpline
210
0.0
220
0.0
230
1.0
 70
     8
 71
     3
 72
    15
 73
    11
 74
     0
 42
0.00000001
 43
0.00000001
 40
0.0
 40
0.0
 40
0.0
 40
0.0
 40
0.1483262009759424
 40
0.2765170782738005
 40
0.3868457783080738
 40
0.4889701119151625
 40
0.5926252478324071
 40
0.708795185157171
 40
0.842007170552393
 40
1.0
 40
1.0
 40
1.0
 40
1.0
 10
-2.014081325301205
 20
0.9099999999999889
 30
0.0
 10
-2.003747831483784
 20
0.9092328072180994
 30
0.0
 10
-1.984483618553412
 20
0.9078025682911601
 30
0.0
 10
-1.95833358426884
 20
0.9005166847177767
 30
0.0
 10
-1.937117999398617
 20
0.8890397192893676
 30
0.0
 10
-1.922357277554111
 20
0.8721673149989341
 30
0.0
 10
-1.912655372918781
 20
0.8515548905548215
 30
0.0
 10
-1.909864194568773
 20
0.8267822435206286
 30
0.0
 10
-1.912149962533873
 20
0.7983390076426654
 30
0.0
 10
-1.917380533418598
 20
0.7786835977885874
 30
0.0
 10
-1.920218373493976
 20
0.7680195783132423
 30
0.0
  0
LINE
  5
14B
330
1F
100
AcDbEntity
  8
0
  6
Continuous
 62
     7
370
    25
100
AcDbLine
 10
-2.1291836102
 20
0.91
 30
0.0
 11
-2.0140813253
 21
0.91
 31
0.0
  0
ARC
  5
14C
330
1F
100
AcDbEntity
  8
0
  6
Continuous
 62
     7
370
    25
100
AcDbCircle
 10
-2.1291836102
 20
0.9725
 30
0.0
 40
0.0625000000000002
100
AcDbArc
 50
161.2433689578
 51
270.0
  0
LINE
  5
14D
330
1F
100
AcDbEntity
  8
0
  6
Continuous
 62
     7
370
    25
100
AcDbLine
 10
-2.1883644178
 20
0.9925968159
 30
0.0
 11
-2.0949790011
 21
1.2675968159
 31
0.0
  0
ARC
  5
14E
330
1F
100
AcDbEntity
  8
0
  6
Continuous
 62
     7
370
    25
100
AcDbCircle
 10
-2.0357981935
 20
1.2475
 30
0.0
 40
0.0625000000000002
100
AcDbArc
 50
90.0
 51
161.2433689578
  0
LINE
  5
14F
330
1F
100
AcDbEntity
  8
0
  6
Continuous
 62
     7
370
    25
100
AcDbLine
 10
-1.7177334337
 20
1.31
 30
0.0
 11
-2.0357981935
 21
1.31
 31
0.0
  0
ARC
  5
150
330
1F
100
AcDbEntity
  8
0
  6
Continuous
 62
     7
370
    25
100
AcDbCircle
 10
-1.7177334337
 20
1.2475
 30
0.0
 40
0.0625
100
AcDbArc
 50
0.0
 51
90.0
  0
LINE
  5
151
330
1F
100
AcDbEntity
  8
0
  6
Continuous
 62
     7
370
    25
100
AcDbLine
 10
-1.6552334337
 20
1.2475
 30
0.0
 11
-1.6552334337
 21
0.9203286478
 31
0.0
  0
ARC
  5
152
330
1F
100
AcDbEntity
  8
0
  6
Continuous
 62
     7
370
    25
100
AcDbCircle
 10
-1.7177334337
 20
0.9203286478
 30
0.0
 40
0.0625000000000002
100
AcDbArc
 50
341.2324093314
 51
0.0
  0
LINE
  5
153
330
1F
100
AcDbEntity
  8
0
  6
Continuous
 62
     7
370
    25
100
AcDbLine
 10
-2.1206995252
 20
-0.4598370514
 30
0.0
 11
-1.6585564714
 21
0.900220512
 31
0.0
  0
ARC
  5
154
330
1F
100
AcDbEntity
  8
0
  6
Continuous
 62
     7
370
    25
100
AcDbCircle
 10
-2.1798764876
 20
-0.4397289157
 30
0.0
 40
0.0625000000000001
100
AcDbArc
 50
270.0
 51
341.2324093314
  0
LINE
  5
155
330
1F
100
AcDbEntity
  8
0
  6
Continuous
 62
     7
370
    25
100
AcDbLine
 10
-2.1798764876
 20
-0.5022289157
 30
0.0
 11
-2.264799968
 21
-0.5022289157
 31
0.0
  0
ARC
  5
156
330
1F
100
AcDbEntity
  8
0
  6
Continuous
 62
     7
370
    25
100
AcDbCircle
 10
-2.264799968
 20
-0.4397289157
 30
0.0
 40
0.0625000000000007
100
AcDbArc
 50
161.2243209149
 51
270.0
  0
LINE
  5
157
330
1F
100
AcDbEntity
  8
0
  6
Continuous
 62
     7
370
    25
100
AcDbLine
 10
3.1980157433
 20
-0.8876529537
 30
0.0
 11
3.1373454394
 21
-0.0832821504
 31
0.0
  0
ARC
  5
158
330
1F
100
AcDbEntity
  8
0
  6
Continuous
 62
     7
370
    25
100
AcDbCircle
 10
3.1356927711
 20
-0.8923537131
 30
0.0
 40
0.0625000000000009
100
AcDbArc
 50
0.0
 51
4.3134121102
  0
LINE
  5
159
330
1F
100
AcDbEntity
  8
0
  6
Continuous
 62
     7
370
    25
100
AcDbLine
 10
3.1981927711
 20
-0.8923537131
 30
0.0
 11
3.1981927711
 21
-1.2475
 31
0.0
  0
ARC
  5
15A
330
1F
100
AcDbEntity
  8
0
  6
Continuous
 62
     7
370
    25
100
AcDbCircle
 10
3.1356927711
 20
-1.2475
 30
0.0
 40
0.0625
100
AcDbArc
 50
270.0
 51
0.0
  0
LINE
  5
15B
330
1F
100
AcDbEntity
  8
0
  6
Continuous
 62
     7
370
    25
100
AcDbLine
 10
2.7306795868
 20
-1.31
 30
0.0
 11
3.1356927711
 21
-1.31
 31
0.0
  0
ARC
  5
15C
330
1F
100
AcDbEntity
  8
0
  6
Continuous
 62
     7
370
    25
100
AcDbCircle
 10
2.7306795868
 20
-1.2475
 30
0.0
 40
0.0625000000000003
100
AcDbArc
 50
161.2328179083
 51
270.0
  0
LINE
  5
15D
330
1F
100
AcDbEntity
  8
0
  6
Continuous
 62
     7
370
    25
100
AcDbLine
 10
3.0628757686
 20
-0.0755786732
 30
0.0
 11
2.6715024811
 21
-1.2273922862
 31
0.0
  0
ARC
  5
15E
330
1F
100
AcDbEntity
  8
0
  6
Continuous
 62
     7
370
    25
100
AcDbCircle
 10
3.0924643215
 20
-0.0856325301
 30
0.0
 40
0.03125
100
AcDbArc
 50
90.0
 51
161.2328179083
  0
LINE
  5
15F
330
1F
100
AcDbEntity
  8
0
  6
Continuous
 62
     7
370
    25
100
AcDbLine
 10
3.1061839533
 20
-0.0543825301
 30
0.0
 11
3.0924643215
 21
-0.0543825301
 31
0.0
  0
ARC
  5
160
330
1F
100
AcDbEntity
  8
0
  6
Continuous
 62
     7
370
    25
100
AcDbCircle
 10
3.1061839533
 20
-0.0856325301
 30
0.0
 40
0.0312500000000008
100
AcDbArc
 50
4.3134121102
 51
90.0
  0
LINE
  5
161
330
1F
100
AcDbEntity
  8
0
  6
Continuous
 62
     7
370
    25
100
AcDbLine
 10
1.6246554904
 20
-1.31
 30
0.0
 11
2.0564558642
 21
-1.31
 31
0.0
  0
ARC
  5
162
330
1F
100
AcDbEntity
  8
0
  6
Continuous
 62
     7
370
    25
100
AcDbCircle
 10
1.6246554904
 20
-1.2475
 30
0.0
 40
0.0625
100
AcDbArc
 50
161.2328179083
 51
270.0
  0
LINE
  5
163
330
1F
100
AcDbEntity
  8
0
  6
Continuous
 62
     7
370
    25
100
AcDbLine
 10
1.9568516722
 20
-0.0755786732
 30
0.0
 11
1.5654783847
 21
-1.2273922862
 31
0.0
  0
ARC
  5
164
330
1F
100
AcDbEntity
  8
0
  6
Continuous
 62
     7
370
    25
100
AcDbCircle
 10
1.9864402251
 20
-0.0856325301
 30
0.0
 40
0.03125
100
AcDbArc
 50
90.0
 51
161.2328179083
  0
LINE
  5
165
330
1F
100
AcDbEntity
  8
0
  6
Continuous
 62
     7
370
    25
100
AcDbLine
 10
2.0001598569
 20
-0.0543825301
 30
0.0
 11
1.9864402251
 21
-0.0543825301
 31
0.0
  0
ARC
  5
166
330
1F
100
AcDbEntity
  8
0
  6
Continuous
 62
     7
370
    25
100
AcDbCircle
 10
2.0001598569
 20
-0.0856325301
 30
0.0
 40
0.03125
100
AcDbArc
 50
4.3134121102
 51
90.0
  0
LINE
  5
167
330
1F
100
AcDbEntity
  8
0
  6
Continuous
 62
     7
370
    25
100
AcDbLine
 10
2.1187788364
 20
-1.2427992405
 30
0.0
 11
2.031321343
 21
-0.0832821504
 31
0.0
  0
ARC
  5
168
330
1F
100
AcDbEntity
  8
0
  6
Continuous
 62
     7
370
    25
100
AcDbCircle
 10
2.0564558642
 20
-1.2475
 30
0.0
 40
0.0625000000000004
100
AcDbArc
 50
270.0
 51
4.3134121102
  0
LINE
  5
169
330
1F
100
AcDbEntity
  8
0
  6
Continuous
 62
     7
370
    25
100
AcDbLine
 10
-0.2537837012
 20
1.31
 30
0.0
 11
-0.7175
 21
1.31
 31
0.0
  0
ARC
  5
16A
330
1F
100
AcDbEntity
  8
0
  6
Continuous
 62
     7
370
    25
100
AcDbCircle
 10
-0.2537837012
 20
1.2475
 30
0.0
 40
0.0625
100
AcDbArc
 50
1.8188577986
 51
90.0
  0
LINE
  5
16B
330
1F
100
AcDbEntity
  8
0
  6
Continuous
 62
     7
370
    25
100
AcDbLine
 10
-0.1913151907
 20
1.2494837329
 30
0.0
 11
-0.1808949016
 21
0.9213448211
 31
0.0
  0
ARC
  5
16C
330
1F
100
AcDbEntity
  8
0
  6
Continuous
 62
     7
370
    25
100
AcDbCircle
 10
-0.2433634121
 20
0.9193610882
 30
0.0
 40
0.0625000000000001
100
AcDbArc
 50
341.2324093314
 51
1.8188577986
  0
LINE
  5
16D
330
1F
100
AcDbEntity
  8
0
  6
Continuous
 62
     7
370
    25
100
AcDbLine
 10
-0.2809487563
 20
0.6144876491
 30
0.0
 11
-0.1841864497
 21
0.8992529525
 31
0.0
  0
ARC
  5
16E
330
1F
100
AcDbEntity
  8
0
  6
Continuous
 62
     7
370
    25
100
AcDbCircle
 10
-0.3401257187
 20
0.6345957849
 30
0.0
 40
0.0625000000000004
100
AcDbArc
 50
251.2324093314
 51
341.2324093314
  0
LINE
  5
16F
330
1F
100
AcDbEntity
  8
0
  6
Continuous
 62
     7
370
    25
100
AcDbLine
 10
-0.5888788408
 20
0.6531116313
 30
0.0
 11
-0.3602338544
 21
0.5754188225
 31
0.0
  0
ARC
  5
170
330
1F
100
AcDbEntity
  8
0
  6
Continuous
 62
     7
370
    25
100
AcDbCircle
 10
-0.568770705
 20
0.7122885937
 30
0.0
 40
0.0625000000000001
100
AcDbArc
 50
191.4974019424
 51
251.2324093314
  0
ARC
  5
171
330
1F
100
AcDbEntity
  8
0
  6
Continuous
 62
     7
370
    25
100
AcDbCircle
 10
-0.875
 20
0.65
 30
0.0
 40
0.2500000000000001
100
AcDbArc
 50
11.4974019424
 51
59.735007389
  0
ARC
  5
172
330
1F
100
AcDbEntity
  8
0
  6
Continuous
 62
     7
370
    25
100
AcDbCircle
 10
-0.7175
 20
0.9199073915
 30
0.0
 40
0.0625000000000001
100
AcDbArc
 50
180.0
 51
239.735007389
  0
LINE
  5
173
330
1F
100
AcDbEntity
  8
0
  6
Continuous
 62
     7
370
    25
100
AcDbLine
 10
-0.78
 20
0.9199073915
 30
0.0
 11
-0.78
 21
1.2475
 31
0.0
  0
ARC
  5
174
330
1F
100
AcDbEntity
  8
0
  6
Continuous
 62
     7
370
    25
100
AcDbCircle
 10
-0.7175
 20
1.2475
 30
0.0
 40
0.0625
100
AcDbArc
 50
90.0
 51
180.0
  0
LINE
  5
175
330
1F
100
AcDbEntity
  8
0
  6
Continuous
 62
     7
370
    25
100
AcDbLine
 10
0.1681684252
 20
-1.31
 30
0.0
 11
0.47063717
 21
-1.31
 31
0.0
  0
ARC
  5
176
330
1F
100
AcDbEntity
  8
0
  6
Continuous
 62
     7
370
    25
100
AcDbCircle
 10
0.1681684252
 20
-1.2475
 30
0.0
 40
0.0625
100
AcDbArc
 50
181.387989906
 51
270.0
  0
LINE
  5
177
330
1F
100
AcDbEntity
  8
0
  6
Continuous
 62
     7
370
    25
100
AcDbLine
 10
0.1056867634
 20
-1.249013914
 30
0.0
 11
0.0972570155
 21
-0.9011046924
 31
0.0
  0
ARC
  5
178
330
1F
100
AcDbEntity
  8
0
  6
Continuous
 62
     7
370
    25
100
AcDbCircle
 10
0.1597386774
 20
-0.8995907784
 30
0.0
 40
0.0625
100
AcDbArc
 50
161.2324093314
 51
181.387989906
  0
LINE
  5
179
330
1F
100
AcDbEntity
  8
0
  6
Continuous
 62
     7
370
    25
100
AcDbLine
 10
0.3665233844
 20
-0.0967743944
 30
0.0
 11
0.100561715
 21
-0.8794826426
 31
0.0
  0
ARC
  5
17A
330
1F
100
AcDbEntity
  8
0
  6
Continuous
 62
     7
370
    25
100
AcDbCircle
 10
0.4257003468
 20
-0.1168825301
 30
0.0
 40
0.0625000000000001
100
AcDbArc
 50
90.0
 51
161.2324093314
  0
LINE
  5
17B
330
1F
100
AcDbEntity
  8
0
  6
Continuous
 62
     7
370
    25
100
AcDbLine
 10
0.5105239069
 20
-0.0543825301
 30
0.0
 11
0.4257003468
 21
-0.0543825301
 31
0.0
  0
ARC
  5
17C
330
1F
100
AcDbEntity
  8
0
  6
Continuous
 62
     7
370
    25
100
AcDbCircle
 10
0.5105239069
 20
-0.1168825301
 30
0.0
 40
0.0625
100
AcDbArc
 50
341.2238034972
 51
90.0
  0
LINE
  5
17D
330
1F
100
AcDbEntity
  8
0
  6
Continuous
 62
     7
370
    25
100
AcDbLine
 10
0.3619728916
 20
-0.7480195783
 30
0.0
 11
0.5696978484
 21
-0.136999554
 31
0.0
  0
SPLINE
  5
17E
330
1F
100
AcDbEntity
  8
0
  6
Continuous
 62
     7
370
    25
100
AcDbSpline
210
0.0
220
0.0
230
1.0
 70
     8
 71
     3
 72
    15
 73
    11
 74
     0
 42
0.00000001
 43
0.00000001
 40
0.0
 40
0.0
 40
0.0
 40
0.0
 40
0.1483262009759475
 40
0.2765170782738029
 40
0.3868457783080743
 40
0.4889701119151647
 40
0.5926252478324074
 40
0.7087951851571719
 40
0.8420071705523938
 40
1.0
 40
1.0
 40
1.0
 40
1.0
 10
0.4558358433735019
 20
-0.8899999999999991
 30
0.0
 10
0.4455023495560803
 20
-0.8892328072181095
 30
0.0
 10
0.4262381366257084
 20
-0.8878025682911705
 30
0.0
 10
0.400088102341136
 20
-0.880516684717787
 30
0.0
 10
0.3788725174709146
 20
-0.8690397192893777
 30
0.0
 10
0.3641117956264068
 20
-0.8521673149989445
 30
0.0
 10
0.3544098909910777
 20
-0.8315548905548313
 30
0.0
 10
0.3516187126410694
 20
-0.806782243520639
 30
0.0
 10
0.3539044806061695
 20
-0.7783390076426756
 30
0.0
 10
0.3591350514908941
 20
-0.7586835977885974
 30
0.0
 10
0.3619728915662718
 20
-0.7480195783132526
 30
0.0
  0
LINE
  5
17F
330
1F
100
AcDbEntity
  8
0
  6
Continuous
 62
     7
370
    25
100
AcDbLine
 10
0.570871545
 20
-0.89
 30
0.0
 11
0.4558358434
 21
-0.89
 31
0.0
  0
ARC
  5
180
330
1F
100
AcDbEntity
  8
0
  6
Continuous
 62
     7
370
    25
100
AcDbCircle
 10
0.570871545
 20
-0.9525
 30
0.0
 40
0.0625
100
AcDbArc
 50
341.2333926893
 51
90.0
  0
LINE
  5
181
330
1F
100
AcDbEntity
  8
0
  6
Continuous
 62
     7
370
    25
100
AcDbLine
 10
0.6300488525
 20
-0.9726071201
 30
0.0
 11
0.5298144775
 21
-1.2676071201
 31
0.0
  0
ARC
  5
182
330
1F
100
AcDbEntity
  8
0
  6
Continuous
 62
     7
370
    25
100
AcDbCircle
 10
0.47063717
 20
-1.2475
 30
0.0
 40
0.0625
100
AcDbArc
 50
270.0
 51
341.2333926893
  0
LINE
  5
183
330
1F
100
AcDbEntity
  8
0
  6
Continuous
 62
     7
370
    25
100
AcDbLine
 10
-2.2652059511
 20
-0.885110256
 30
0.0
 11
-2.2277354815
 21
-0.7748370514
 31
0.0
  0
ARC
  5
184
330
1F
100
AcDbEntity
  8
0
  6
Continuous
 62
     7
370
    25
100
AcDbCircle
 10
-2.2356174699
 20
-0.8951643239
 30
0.0
 40
0.0312500000000004
100
AcDbArc
 50
161.2324093314
 51
180.0
  0
LINE
  5
185
330
1F
100
AcDbEntity
  8
0
  6
Continuous
 62
     7
370
    25
100
AcDbLine
 10
-2.2668674699
 20
-0.8951643239
 30
0.0
 11
-2.2668674699
 21
-1.2475
 31
0.0
  0
ARC
  5
186
330
1F
100
AcDbEntity
  8
0
  6
Continuous
 62
     7
370
    25
100
AcDbCircle
 10
-2.3293674699
 20
-1.2475
 30
0.0
 40
0.0625
100
AcDbArc
 50
270.0
 51
0.0
  0
LINE
  5
187
330
1F
100
AcDbEntity
  8
0
  6
Continuous
 62
     7
370
    25
100
AcDbLine
 10
-2.8830586102
 20
-1.31
 30
0.0
 11
-2.3293674699
 21
-1.31
 31
0.0
  0
ARC
  5
188
330
1F
100
AcDbEntity
  8
0
  6
Continuous
 62
     7
370
    25
100
AcDbCircle
 10
-2.8830586102
 20
-1.2475
 30
0.0
 40
0.0625000000000005
100
AcDbArc
 50
161.2433689578
 51
270.0
  0
LINE
  5
189
330
1F
100
AcDbEntity
  8
0
  6
Continuous
 62
     7
370
    25
100
AcDbLine
 10
-2.9422394178
 20
-1.2274031841
 30
0.0
 11
-2.8420623344
 21
-0.9324031841
 31
0.0
  0
ARC
  5
18A
330
1F
100
AcDbEntity
  8
0
  6
Continuous
 62
     7
370
    25
100
AcDbCircle
 10
-2.7828815268
 20
-0.9525
 30
0.0
 40
0.0625000000000001
100
AcDbArc
 50
90.0
 51
161.2433689578
  0
LINE
  5
18B
330
1F
100
AcDbEntity
  8
0
  6
Continuous
 62
     7
370
    25
100
AcDbLine
 10
-2.6257153614
 20
-0.89
 30
0.0
 11
-2.7828815268
 21
-0.89
 31
0.0
  0
SPLINE
  5
18C
330
1F
100
AcDbEntity
  8
0
  6
Continuous
 62
     7
370
    25
100
AcDbSpline
210
0.0
220
0.0
230
1.0
 70
     8
 71
     3
 72
    15
 73
    11
 74
     0
 42
0.00000001
 43
0.00000001
 40
0.0
 40
0.0
 40
0.0
 40
0.0
 40
0.1389228019771227
 40
0.267375308964428
 40
0.3908431069045576
 40
0.5083576422643981
 40
0.62560548843381
 40
0.7443315458751789
 40
0.8682476617455283
 40
1.0
 40
1.0
 40
1.0
 40
1.0
 10
-2.435617469879511
 20
-0.748019578313266
 30
0.0
 10
-2.440065378328081
 20
-0.7588935255209243
 30
0.0
 10
-2.448625966501921
 20
-0.7798218753161525
 30
0.0
 10
-2.465949013046228
 20
-0.8080830028353144
 30
0.0
 10
-2.485832826623033
 20
-0.8322779491084107
 30
0.0
 10
-2.508689109878953
 20
-0.852272721891832
 30
0.0
 10
-2.533904778459277
 20
-0.8685278616979556
 30
0.0
 10
-2.562203006563593
 20
-0.8799848598257942
 30
0.0
 10
-2.593031406081626
 20
-0.8876306991503027
 30
0.0
 10
-2.614600347416235
 20
-0.8891942587152969
 30
0.0
 10
-2.625715361445776
 20
-0.890000000000014
 30
0.0
  0
LINE
  5
18D
330
1F
100
AcDbEntity
  8
0
  6
Continuous
 62
     7
370
    25
100
AcDbLine
 10
-2.4310596527
 20
-0.7346124261
 30
0.0
 11
-2.4356174699
 21
-0.7480195783
 31
0.0
  0
ARC
  5
18E
330
1F
100
AcDbEntity
  8
0
  6
Continuous
 62
     7
370
    25
100
AcDbCircle
 10
-2.3718855295
 20
-0.7547289157
 30
0.0
 40
0.0624999999999998
100
AcDbArc
 50
90.0
 51
161.2243209149
  0
LINE
  5
18F
330
1F
100
AcDbEntity
  8
0
  6
Continuous
 62
     7
370
    25
100
AcDbLine
 10
-2.2869124439
 20
-0.6922289157
 30
0.0
 11
-2.3718855295
 21
-0.6922289157
 31
0.0
  0
ARC
  5
190
330
1F
100
AcDbEntity
  8
0
  6
Continuous
 62
     7
370
    25
100
AcDbCircle
 10
-2.2869124439
 20
-0.7547289157
 30
0.0
 40
0.0625000000000001
100
AcDbArc
 50
341.2324093314
 51
90.0
  0
LINE
  5
191
330
1F
100
AcDbEntity
  8
0
  6
Continuous
 62
     7
370
    25
100
AcDbLine
 10
-2.9797872093
 20
0.9051093265
 30
0.0
 11
-3.2522479066
 21
0.1034555729
 31
0.0
  0
ARC
  5
192
330
1F
100
AcDbEntity
  8
0
  6
Continuous
 62
     7
370
    25
100
AcDbCircle
 10
-3.009375
 20
0.9151654262
 30
0.0
 40
0.03125
100
AcDbArc
 50
341.228474775
 51
0.0
  0
LINE
  5
193
330
1F
100
AcDbEntity
  8
0
  6
Continuous
 62
     7
370
    25
100
AcDbLine
 10
-2.978125
 20
0.9151654262
 30
0.0
 11
-2.978125
 21
1.2475
 31
0.0
  0
ARC
  5
194
330
1F
100
AcDbEntity
  8
0
  6
Continuous
 62
     7
370
    25
100
AcDbCircle
 10
-2.915625
 20
1.2475
 30
0.0
 40
0.0625
100
AcDbArc
 50
90.0
 51
180.0
  0
LINE
  5
195
330
1F
100
AcDbEntity
  8
0
  6
Continuous
 62
     7
370
    25
100
AcDbLine
 10
-2.3684770324
 20
1.31
 30
0.0
 11
-2.915625
 21
1.31
 31
0.0
  0
ARC
  5
196
330
1F
100
AcDbEntity
  8
0
  6
Continuous
 62
     7
370
    25
100
AcDbCircle
 10
-2.3684770324
 20
1.2475
 30
0.0
 40
0.0625000000000002
100
AcDbArc
 50
341.2433689578
 51
90.0
  0
LINE
  5
197
330
1F
100
AcDbEntity
  8
0
  6
Continuous
 62
     7
370
    25
100
AcDbLine
 10
-2.3092962248
 20
1.2274031841
 30
0.0
 11
-2.4026816415
 21
0.9524031841
 31
0.0
  0
ARC
  5
198
330
1F
100
AcDbEntity
  8
0
  6
Continuous
 62
     7
370
    25
100
AcDbCircle
 10
-2.4618624491
 20
0.9725
 30
0.0
 40
0.0625000000000002
100
AcDbArc
 50
270.0
 51
341.2433689578
  0
LINE
  5
199
330
1F
100
AcDbEntity
  8
0
  6
Continuous
 62
     7
370
    25
100
AcDbLine
 10
-2.6192771084
 20
0.91
 30
0.0
 11
-2.4618624491
 21
0.91
 31
0.0
  0
SPLINE
  5
19A
330
1F
100
AcDbEntity
  8
0
  6
Continuous
 62
     7
370
    25
100
AcDbSpline
210
0.0
220
0.0
230
1.0
 70
     8
 71
     3
 72
    15
 73
    11
 74
     0
 42
0.00000001
 43
0.00000001
 40
0.0
 40
0.0
 40
0.0
 40
0.0
 40
0.1389228019771231
 40
0.2673753089644283
 40
0.3908431069045575
 40
0.5083576422643983
 40
0.6256054884338103
 40
0.7443315458751788
 40
0.8682476617455281
 40
0.9999999999999999
 40
0.9999999999999999
 40
0.9999999999999999
 40
0.9999999999999999
 10
-2.809375
 20
0.7680195783132379
 30
0.0
 10
-2.804927091551429
 20
0.7788935255208962
 30
0.0
 10
-2.79636650337759
 20
0.7998218753161248
 30
0.0
 10
-2.779043456833281
 20
0.8280830028352859
 30
0.0
 10
-2.759159643256479
 20
0.8522779491083827
 30
0.0
 10
-2.736303360000558
 20
0.8722727218918035
 30
0.0
 10
-2.711087691420232
 20
0.8885278616979279
 30
0.0
 10
-2.682789463315917
 20
0.899984859825766
 30
0.0
 10
-2.651961063797887
 20
0.9076306991502747
 30
0.0
 10
-2.630392122463276
 20
0.909194258715269
 30
0.0
 10
-2.619277108433736
 20
0.9099999999999859
 30
0.0
  0
LINE
  5
19B
330
1F
100
AcDbEntity
  8
0
  6
Continuous
 62
     7
370
    25
100
AcDbLine
 10
-3.0489794928
 20
0.0632263496
 30
0.0
 11
-2.809375
 21
0.7680195783
 31
0.0
  0
ARC
  5
19C
330
1F
100
AcDbEntity
  8
0
  6
Continuous
 62
     7
370
    25
100
AcDbCircle
 10
-3.1081534343
 20
0.0833433735
 30
0.0
 40
0.0625000000000002
100
AcDbArc
 50
270.0
 51
341.2238034972
  0
LINE
  5
19D
330
1F
100
AcDbEntity
  8
0
  6
Continuous
 62
     7
370
    25
100
AcDbLine
 10
-3.1930723252
 20
0.0208433735
 30
0.0
 11
-3.1081534343
 21
0.0208433735
 31
0.0
  0
ARC
  5
19E
330
1F
100
AcDbEntity
  8
0
  6
Continuous
 62
     7
370
    25
100
AcDbCircle
 10
-3.1930723252
 20
0.0833433735
 30
0.0
 40
0.0625000000000004
100
AcDbArc
 50
161.228474775
 51
270.0
  0
LINE
  5
19F
330
1F
100
AcDbEntity
  8
0
  6
Continuous
 62
     7
370
    25
100
AcDbLine
 10
-5.5363496369
 20
-0.8746477956
 30
0.0
 11
-5.3639812448
 21
-0.3673785996
 31
0.0
  0
ARC
  5
1A0
330
1F
100
AcDbEntity
  8
0
  6
Continuous
 62
     7
370
    25
100
AcDbCircle
 10
-5.5955265993
 20
-0.8545396599
 30
0.0
 40
0.0625000000000014
100
AcDbArc
 50
316.5532947434
 51
341.2324093314
  0
LINE
  5
1A1
330
1F
100
AcDbEntity
  8
0
  6
Continuous
 62
     7
370
    25
100
AcDbLine
 10
-5.5501507028
 20
-0.8975196322
 30
0.0
 11
-5.7021241036
 21
-1.0579648098
 31
0.0
  0
ARC
  5
1A2
330
1F
100
AcDbEntity
  8
0
  6
Continuous
 62
     7
370
    25
100
AcDbCircle
 10
-5.7475
 20
-1.0149848374
 30
0.0
 40
0.0624999999999997
100
AcDbArc
 50
180.0
 51
316.5532947434
  0
LINE
  5
1A3
330
1F
100
AcDbEntity
  8
0
  6
Continuous
 62
     7
370
    25
100
AcDbLine
 10
-5.81
 20
-0.2575
 30
0.0
 11
-5.81
 21
-1.0149848374
 31
0.0
  0
ARC
  5
1A4
330
1F
100
AcDbEntity
  8
0
  6
Continuous
 62
     7
370
    25
100
AcDbCircle
 10
-5.7475
 20
-0.2575
 30
0.0
 40
0.0625
100
AcDbArc
 50
90.0
 51
180.0
  0
LINE
  5
1A5
330
1F
100
AcDbEntity
  8
0
  6
Continuous
 62
     7
370
    25
100
AcDbLine
 10
-5.6541487832
 20
-0.195
 30
0.0
 11
-5.7475
 21
-0.195
 31
0.0
  0
ARC
  5
1A6
330
1F
100
AcDbEntity
  8
0
  6
Continuous
 62
     7
370
    25
100
AcDbCircle
 10
-5.6541487832
 20
-0.2575
 30
0.0
 40
0.0625
100
AcDbArc
 50
39.0501225362
 51
90.0
  0
ARC
  5
1A7
330
1F
100
AcDbEntity
  8
0
  6
Continuous
 62
     7
370
    25
100
AcDbCircle
 10
-5.46
 20
-0.1
 30
0.0
 40
0.1875000000000005
100
AcDbArc
 50
219.0501225362
 51
278.4743809686
  0
ARC
  5
1A8
330
1F
100
AcDbEntity
  8
0
  6
Continuous
 62
     7
370
    25
100
AcDbCircle
 10
-5.4231582072
 20
-0.3472704639
 30
0.0
 40
0.0625000000000007
100
AcDbArc
 50
341.2324093314
 51
98.4743809686
  0
LINE
  5
1A9
330
1F
100
AcDbEntity
  8
0
  6
Continuous
 62
     7
370
    25
100
AcDbLine
 10
-3.1155603658
 20
-0.89
 30
0.0
 11
-3.2309111446
 21
-0.89
 31
0.0
  0
ARC
  5
1AA
330
1F
100
AcDbEntity
  8
0
  6
Continuous
 62
     7
370
    25
100
AcDbCircle
 10
-3.1155603658
 20
-0.9525
 30
0.0
 40
0.0625000000000001
100
AcDbArc
 50
341.2433689578
 51
90.0
  0
LINE
  5
1AB
330
1F
100
AcDbEntity
  8
0
  6
Continuous
 62
     7
370
    25
100
AcDbLine
 10
-3.0563795581
 20
-0.9725968159
 30
0.0
 11
-3.1565566415
 21
-1.2675968159
 31
0.0
  0
ARC
  5
1AC
330
1F
100
AcDbEntity
  8
0
  6
Continuous
 62
     7
370
    25
100
AcDbCircle
 10
-3.2157374491
 20
-1.2475
 30
0.0
 40
0.0625000000000007
100
AcDbArc
 50
270.0
 51
341.2433689578
  0
LINE
  5
1AD
330
1F
100
AcDbEntity
  8
0
  6
Continuous
 62
     7
370
    25
100
AcDbLine
 10
-3.6692394578
 20
-1.31
 30
0.0
 11
-3.2157374491
 21
-1.31
 31
0.0
  0
ARC
  5
1AE
330
1F
100
AcDbEntity
  8
0
  6
Continuous
 62
     7
370
    25
100
AcDbCircle
 10
-3.6692394578
 20
-1.2475
 30
0.0
 40
0.0625000000000004
100
AcDbArc
 50
180.0
 51
270.0
  0
LINE
  5
1AF
330
1F
100
AcDbEntity
  8
0
  6
Continuous
 62
     7
370
    25
100
AcDbLine
 10
-3.7317394578
 20
-1.2475
 30
0.0
 11
-3.7317394578
 21
-0.9444159135
 31
0.0
  0
ARC
  5
1B0
330
1F
100
AcDbEntity
  8
0
  6
Continuous
 62
     7
370
    25
100
AcDbCircle
 10
-3.6692394578
 20
-0.9444159135
 30
0.0
 40
0.0624999999999994
100
AcDbArc
 50
103.5663777911
 51
180.0
  0
SPLINE
  5
1B1
330
1F
100
AcDbEntity
  8
0
  6
Continuous
 62
     7
370
    25
100
AcDbSpline
210
0.0
220
0.0
230
1.0
 70
     8
 71
     3
 72
    14
 73
    10
 74
     0
 42
0.00000001
 43
0.00000001
 40
0.0
 40
0.0
 40
0.0
 40
0.0
 40
0.1389228019771229
 40
0.2673753089644272
 40
0.3908431069045599
 40
0.5083576422643973
 40
0.6256054884338114
 40
0.7443315458751784
 40
0.8093355573856341
 40
0.8093355573856341
 40
0.8093355573856341
 40
0.8093355573856341
 10
-3.541641566265053
 20
-0.7480195783132716
 30
0.0
 10
-3.546089474713623
 20
-0.7588935255209295
 30
0.0
 10
-3.554650062887463
 20
-0.7798218753161577
 30
0.0
 10
-3.57197310943177
 20
-0.8080830028353204
 30
0.0
 10
-3.591856923008576
 20
-0.8322779491084153
 30
0.0
 10
-3.614713206264495
 20
-0.8522727218918379
 30
0.0
 10
-3.639928874844821
 20
-0.8685278616979609
 30
0.0
 10
-3.663594831763386
 20
-0.8781094094581252
 30
0.0
 10
-3.67855795789273
 20
-0.8823706334116828
 30
0.0
 10
-3.683900189593704
 20
-0.8836597373498001
 30
0.0
  0
LINE
  5
1B2
330
1F
100
AcDbEntity
  8
0
  6
Continuous
 62
     7
370
    25
100
AcDbLine
 10
-3.3593079925
 20
-0.2115444271
 30
0.0
 11
-3.5416415663
 21
-0.7480195783
 31
0.0
  0
ARC
  5
1B3
330
1F
100
AcDbEntity
  8
0
  6
Continuous
 62
     7
370
    25
100
AcDbCircle
 10
-3.3001324111
 20
-0.2316566265
 30
0.0
 40
0.0624999999999999
100
AcDbArc
 50
90.0
 51
161.228474775
  0
LINE
  5
1B4
330
1F
100
AcDbEntity
  8
0
  6
Continuous
 62
     7
370
    25
100
AcDbLine
 10
-3.2152421692
 20
-0.1691566265
 30
0.0
 11
-3.3001324111
 21
-0.1691566265
 31
0.0
  0
ARC
  5
1B5
330
1F
100
AcDbEntity
  8
0
  6
Continuous
 62
     7
370
    25
100
AcDbCircle
 10
-3.2152421692
 20
-0.2316566265
 30
0.0
 40
0.0625000000000002
100
AcDbArc
 50
341.2238034972
 51
90.0
  0
LINE
  5
1B6
330
1F
100
AcDbEntity
  8
0
  6
Continuous
 62
     7
370
    25
100
AcDbLine
 10
-3.3247740964
 20
-0.7480195783
 30
0.0
 11
-3.1560682277
 21
-0.2517736504
 31
0.0
  0
SPLINE
  5
1B7
330
1F
100
AcDbEntity
  8
0
  6
Continuous
 62
     7
370
    25
100
AcDbSpline
210
0.0
220
0.0
230
1.0
 70
     8
 71
     3
 72
    15
 73
    11
 74
     0
 42
0.00000001
 43
0.00000001
 40
0.0
 40
0.0
 40
0.0
 40
0.0
 40
0.1483262009759473
 40
0.2765170782738025
 40
0.3868457783080759
 40
0.4889701119151645
 40
0.5926252478324082
 40
0.7087951851571722
 40
0.8420071705523939
 40
1.0
 40
1.0
 40
1.0
 40
1.0
 10
-3.230911144578305
 20
-0.890000000000017
 30
0.0
 10
-3.241244638395726
 20
-0.8892328072181275
 30
0.0
 10
-3.260508851326099
 20
-0.8878025682911886
 30
0.0
 10
-3.286658885610671
 20
-0.8805166847178044
 30
0.0
 10
-3.307874470480893
 20
-0.8690397192893962
 30
0.0
 10
-3.322635192325399
 20
-0.8521673149989618
 30
0.0
 10
-3.332337096960729
 20
-0.8315548905548492
 30
0.0
 10
-3.335128275310737
 20
-0.8067822435206566
 30
0.0
 10
-3.332842507345637
 20
-0.7783390076426939
 30
0.0
 10
-3.327611936460913
 20
-0.7586835977886155
 30
0.0
 10
-3.324774096385535
 20
-0.7480195783132705
 30
0.0
  0
ARC
  5
1B8
330
1F
100
AcDbEntity
  8
0
  6
Continuous
 62
     7
370
    25
100
AcDbCircle
 10
-0.875
 20
-1.1
 30
0.0
 40
0.25
100
AcDbArc
 50
80.7433141136
 51
127.4505219401
  0
ARC
  5
1B9
330
1F
100
AcDbEntity
  8
0
  6
Continuous
 62
     7
370
    25
100
AcDbCircle
 10
-1.0650237806
 20
-0.8519128927
 30
0.0
 40
0.0625000000000009
100
AcDbArc
 50
247.7155145511
 51
307.4505219401
  0
LINE
  5
1BA
330
1F
100
AcDbEntity
  8
0
  6
Continuous
 62
     7
370
    25
100
AcDbLine
 10
-1.0887241317
 20
-0.9097449198
 30
0.0
 11
-1.3528077115
 21
-0.8015198779
 31
0.0
  0
ARC
  5
1BB
330
1F
100
AcDbEntity
  8
0
  6
Continuous
 62
     7
370
    25
100
AcDbCircle
 10
-1.3291073604
 20
-0.7436878508
 30
0.0
 40
0.0625000000000001
100
AcDbArc
 50
185.5393789378
 51
247.7155145511
  0
LINE
  5
1BC
330
1F
100
AcDbEntity
  8
0
  6
Continuous
 62
     7
370
    25
100
AcDbLine
 10
-1.4668022002
 20
0.0286308797
 30
0.0
 11
-1.391315491
 21
-0.7497209669
 31
0.0
  0
ARC
  5
1BD
330
1F
100
AcDbEntity
  8
0
  6
Continuous
 62
     7
370
    25
100
AcDbCircle
 10
-1.4045940697
 20
0.0346639958
 30
0.0
 40
0.0625
100
AcDbArc
 50
142.1600654811
 51
185.5393789378
  0
LINE
  5
1BE
330
1F
100
AcDbEntity
  8
0
  6
Continuous
 62
     7
370
    25
100
AcDbLine
 10
-1.1466097779
 20
0.4686586336
 30
0.0
 11
-1.4539520466
 21
0.073005098
 31
0.0
  0
ARC
  5
1BF
330
1F
100
AcDbEntity
  8
0
  6
Continuous
 62
     7
370
    25
100
AcDbCircle
 10
-1.0972518009
 20
0.4303175315
 30
0.0
 40
0.0625
100
AcDbArc
 50
44.6668956148
 51
142.1600654811
  0
ARC
  5
1C0
330
1F
100
AcDbEntity
  8
0
  6
Continuous
 62
     7
370
    25
100
AcDbCircle
 10
-0.875
 20
0.65
 30
0.0
 40
0.2500000000000001
100
AcDbArc
 50
224.6668956148
 51
310.9674167204
  0
ARC
  5
1C1
330
1F
100
AcDbEntity
  8
0
  6
Continuous
 62
     7
370
    25
100
AcDbCircle
 10
-0.6701157092
 20
0.4140367033
 30
0.0
 40
0.0625000000000001
100
AcDbArc
 50
71.2324093314
 51
130.9674167204
  0
LINE
  5
1C2
330
1F
100
AcDbEntity
  8
0
  6
Continuous
 62
     7
370
    25
100
AcDbLine
 10
-0.6500075735
 20
0.4732136657
 30
0.0
 11
-0.4213625871
 21
0.3955208569
 31
0.0
  0
ARC
  5
1C3
330
1F
100
AcDbEntity
  8
0
  6
Continuous
 62
     7
370
    25
100
AcDbCircle
 10
-0.4414707228
 20
0.3363438945
 30
0.0
 40
0.0625
100
AcDbArc
 50
341.2324093314
 51
71.2324093314
  0
LINE
  5
1C4
330
1F
100
AcDbEntity
  8
0
  6
Continuous
 62
     7
370
    25
100
AcDbLine
 10
-0.7655549945
 20
-0.8116776349
 30
0.0
 11
-0.3822937604
 21
0.3162357587
 31
0.0
  0
ARC
  5
1C5
330
1F
100
AcDbEntity
  8
0
  6
Continuous
 62
     7
370
    25
100
AcDbCircle
 10
-0.8247319569
 20
-0.7915694992
 30
0.0
 40
0.0625000000000001
100
AcDbArc
 50
260.7433141136
 51
341.2324093314
  0
LINE
  5
1C6
330
1F
100
AcDbEntity
  8
0
  6
Continuous
 62
     7
370
    25
100
AcDbLine
 10
-1.3966526503
 20
0.9051120585
 30
0.0
 11
-1.5898739265
 21
0.3362255121
 31
0.0
  0
ARC
  5
1C7
330
1F
100
AcDbEntity
  8
0
  6
Continuous
 62
     7
370
    25
100
AcDbCircle
 10
-1.4262424699
 20
0.9151621867
 30
0.0
 40
0.0312500000000002
100
AcDbArc
 50
341.2400380857
 51
0.0
  0
LINE
  5
1C8
330
1F
100
AcDbEntity
  8
0
  6
Continuous
 62
     7
370
    25
100
AcDbLine
 10
-1.3949924699
 20
0.9151621867
 30
0.0
 11
-1.3949924699
 21
1.2475
 31
0.0
  0
ARC
  5
1C9
330
1F
100
AcDbEntity
  8
0
  6
Continuous
 62
     7
370
    25
100
AcDbCircle
 10
-1.3324924699
 20
1.2475
 30
0.0
 40
0.0625
100
AcDbArc
 50
90.0
 51
180.0
  0
LINE
  5
1CA
330
1F
100
AcDbEntity
  8
0
  6
Continuous
 62
     7
370
    25
100
AcDbLine
 10
-1.0325
 20
1.31
 30
0.0
 11
-1.3324924699
 21
1.31
 31
0.0
  0
ARC
  5
1CB
330
1F
100
AcDbEntity
  8
0
  6
Continuous
 62
     7
370
    25
100
AcDbCircle
 10
-1.0325
 20
1.2475
 30
0.0
 40
0.0625
100
AcDbArc
 50
0.0
 51
90.0
  0
LINE
  5
1CC
330
1F
100
AcDbEntity
  8
0
  6
Continuous
 62
     7
370
    25
100
AcDbLine
 10
-0.97
 20
1.0603552603
 30
0.0
 11
-0.97
 21
1.2475
 31
0.0
  0
ARC
  5
1CD
330
1F
100
AcDbEntity
  8
0
  6
Continuous
 62
     7
370
    25
100
AcDbCircle
 10
-1.0325
 20
1.0603552603
 30
0.0
 40
0.0625
100
AcDbArc
 50
322.3079661876
 51
0.0
  0
LINE
  5
1CE
330
1F
100
AcDbEntity
  8
0
  6
Continuous
 62
     7
370
    25
100
AcDbLine
 10
-1.5355557147
 20
0.3070686019
 30
0.0
 11
-0.9830432156
 21
1.0221416962
 31
0.0
  0
ARC
  5
1CF
330
1F
100
AcDbEntity
  8
0
  6
Continuous
 62
     7
370
    25
100
AcDbCircle
 10
-1.5602841069
 20
0.3261753839
 30
0.0
 40
0.03125
100
AcDbArc
 50
161.2400380857
 51
322.3079661876
  0
LINE
  5
1D0
330
1F
100
AcDbEntity
  8
0
  6
Continuous
 62
     7
370
    25
100
AcDbLine
 10
-0.1281968411
 20
-1.245986086
 30
0.0
 11
-0.1588503692
 21
0.0191342191
 31
0.0
  0
ARC
  5
1D1
330
1F
100
AcDbEntity
  8
0
  6
Continuous
 62
     7
370
    25
100
AcDbCircle
 10
-0.1906785029
 20
-1.2475
 30
0.0
 40
0.0625
100
AcDbArc
 50
270.0
 51
1.387989906
  0
LINE
  5
1D2
330
1F
100
AcDbEntity
  8
0
  6
Continuous
 62
     7
370
    25
100
AcDbLine
 10
-0.5874571401
 20
-1.31
 30
0.0
 11
-0.1906785029
 21
-1.31
 31
0.0
  0
ARC
  5
1D3
330
1F
100
AcDbEntity
  8
0
  6
Continuous
 62
     7
370
    25
100
AcDbCircle
 10
-0.5874571401
 20
-1.2475
 30
0.0
 40
0.0625000000000001
100
AcDbArc
 50
161.2230081908
 51
270.0
  0
LINE
  5
1D4
330
1F
100
AcDbEntity
  8
0
  6
Continuous
 62
     7
370
    25
100
AcDbLine
 10
-0.2196780313
 20
0.0284361847
 30
0.0
 11
-0.6466308023
 21
-1.2273821547
 31
0.0
  0
ARC
  5
1D5
330
1F
100
AcDbEntity
  8
0
  6
Continuous
 62
     7
370
    25
100
AcDbCircle
 10
-0.1900912002
 20
0.0183772621
 30
0.0
 40
0.03125
100
AcDbArc
 50
1.387989906
 51
161.2230081908
  0
LINE
  5
1D6
330
1F
100
AcDbEntity
  8
0
  6
Continuous
 62
     7
370
    25
100
AcDbLine
 10
0.4970527656
 20
1.31
 30
0.0
 11
0.1050895505
 21
1.31
 31
0.0
  0
ARC
  5
1D7
330
1F
100
AcDbEntity
  8
0
  6
Continuous
 62
     7
370
    25
100
AcDbCircle
 10
0.4970527656
 20
1.2475
 30
0.0
 40
0.0625
100
AcDbArc
 50
341.2324093314
 51
90.0
  0
LINE
  5
1D8
330
1F
100
AcDbEntity
  8
0
  6
Continuous
 62
     7
370
    25
100
AcDbLine
 10
0.142396372
 20
0.0097887957
 30
0.0
 11
0.556229728
 21
1.2273918643
 31
0.0
  0
ARC
  5
1D9
330
1F
100
AcDbEntity
  8
0
  6
Continuous
 62
     7
370
    25
100
AcDbCircle
 10
0.1128088508
 20
0.0198456883
 30
0.0
 40
0.03125
100
AcDbArc
 50
181.8188577986
 51
341.2269394137
  0
LINE
  5
1DA
330
1F
100
AcDbEntity
  8
0
  6
Continuous
 62
     7
370
    25
100
AcDbLine
 10
0.04262104
 20
1.2455162671
 30
0.0
 11
0.0815745955
 21
0.0188538219
 31
0.0
  0
ARC
  5
1DB
330
1F
100
AcDbEntity
  8
0
  6
Continuous
 62
     7
370
    25
100
AcDbCircle
 10
0.1050895505
 20
1.2475
 30
0.0
 40
0.0625
100
AcDbArc
 50
90.0
 51
181.8188577986
  0
LINE
  5
1DC
330
1F
100
AcDbEntity
  8
0
  6
Continuous
 62
     7
370
    25
100
AcDbLine
 10
2.5467685276
 20
-0.82859589
 30
0.0
 11
2.7817736913
 21
-0.1369906659
 31
0.0
  0
ARC
  5
1DD
330
1F
100
AcDbEntity
  8
0
  6
Continuous
 62
     7
370
    25
100
AcDbCircle
 10
2.4875915652
 20
-0.8084877542
 30
0.0
 40
0.0625000000000001
100
AcDbArc
 50
248.8818082226
 51
341.2324093314
  0
ARC
  5
1DE
330
1F
100
AcDbEntity
  8
0
  6
Continuous
 62
     7
370
    25
100
AcDbCircle
 10
2.375
 20
-1.1
 30
0.0
 40
0.2499999999999998
100
AcDbArc
 50
68.8818082226
 51
83.370940531
  0
ARC
  5
1DF
330
1F
100
AcDbEntity
  8
0
  6
Continuous
 62
     7
370
    25
100
AcDbCircle
 10
2.4110752993
 20
-0.7895892676
 30
0.0
 40
0.0624999999999999
100
AcDbArc
 50
182.2134554612
 51
263.370940531
  0
LINE
  5
1E0
330
1F
100
AcDbEntity
  8
0
  6
Continuous
 62
     7
370
    25
100
AcDbLine
 10
2.3230282765
 20
-0.1298353991
 30
0.0
 11
2.3486219322
 21
-0.7920031724
 31
0.0
  0
ARC
  5
1E1
330
1F
100
AcDbEntity
  8
0
  6
Continuous
 62
     7
370
    25
100
AcDbCircle
 10
2.3854816436
 20
-0.1274214943
 30
0.0
 40
0.0625000000000004
100
AcDbArc
 50
91.5010872454
 51
182.2134554612
  0
SPLINE
  5
1E2
330
1F
100
AcDbEntity
  8
0
  6
Continuous
 62
     7
370
    25
100
AcDbSpline
210
0.0
220
0.0
230
1.0
 70
     8
 71
     3
 72
    13
 73
     9
 74
     0
 42
0.00000001
 43
0.00000001
 40
0.1017125924088949
 40
0.1017125924088949
 40
0.1017125924088949
 40
0.1017125924088949
 40
0.1605494940084986
 40
0.2637889982822406
 40
0.3806465194462236
 40
0.5131873622313033
 40
0.6596365943618157
 40
0.6706294071779281
 40
0.6706294071779281
 40
0.6706294071779281
 40
0.6706294071779281
 10
2.4926590426413
 20
-0.055509492125806
 30
0.0
 10
2.488958161373191
 20
-0.0562219686552006
 30
0.0
 10
2.478710440076509
 20
-0.0579346188455779
 30
0.0
 10
2.461017131205769
 20
-0.0604486455256651
 30
0.0
 10
2.438495659927823
 20
-0.0622955633799589
 30
0.0
 10
2.413201521748428
 20
-0.0640997204875183
 30
0.0
 10
2.394630899796178
 20
-0.0646575900200911
 30
0.0
 10
2.384548373979406
 20
-0.064924494916559
 30
0.0
 10
2.383844398760615
 20
-0.0649429425242341
 30
0.0
  0
ARC
  5
1E3
330
1F
100
AcDbEntity
  8
0
  6
Continuous
 62
     7
370
    25
100
AcDbCircle
 10
2.5044742958
 20
-0.1168825301
 30
0.0
 40
0.0624999999999999
100
AcDbArc
 50
90.0
 51
100.8970013487
  0
LINE
  5
1E4
330
1F
100
AcDbEntity
  8
0
  6
Continuous
 62
     7
370
    25
100
AcDbLine
 10
2.7225967289
 20
-0.0543825301
 30
0.0
 11
2.5044742958
 21
-0.0543825301
 31
0.0
  0
ARC
  5
1E5
330
1F
100
AcDbEntity
  8
0
  6
Continuous
 62
     7
370
    25
100
AcDbCircle
 10
2.7225967289
 20
-0.1168825301
 30
0.0
 40
0.0625000000000001
100
AcDbArc
 50
341.2324093314
 51
90.0
  0
LINE
  5
1E6
330
1F
100
AcDbEntity
  8
0
  6
Continuous
 62
     7
370
    25
100
AcDbLine
 10
4.5541609899
 20
-0.3457562393
 30
0.0
 11
4.4857668756
 21
-0.5471622202
 31
0.0
  0
ARC
  5
1E7
330
1F
100
AcDbEntity
  8
0
  6
Continuous
 62
     7
370
    25
100
AcDbCircle
 10
4.5245705861
 20
-0.3357078313
 30
0.0
 40
0.03125
100
AcDbArc
 50
341.2433689578
 51
90.0
  0
LINE
  5
1E8
330
1F
100
AcDbEntity
  8
0
  6
Continuous
 62
     7
370
    25
100
AcDbLine
 10
4.3303271133
 20
-0.3044578313
 30
0.0
 11
4.5245705861
 21
-0.3044578313
 31
0.0
  0
ARC
  5
1E9
330
1F
100
AcDbEntity
  8
0
  6
Continuous
 62
     7
370
    25
100
AcDbCircle
 10
4.3303271133
 20
-0.3357078313
 30
0.0
 40
0.03125
100
AcDbArc
 50
90.0
 51
161.2243209149
  0
LINE
  5
1EA
330
1F
100
AcDbEntity
  8
0
  6
Continuous
 62
     7
370
    25
100
AcDbLine
 10
4.1571536145
 20
-0.7480195783
 30
0.0
 11
4.3007400517
 21
-0.3256495866
 31
0.0
  0
SPLINE
  5
1EB
330
1F
100
AcDbEntity
  8
0
  6
Continuous
 62
     7
370
    25
100
AcDbSpline
210
0.0
220
0.0
230
1.0
 70
     8
 71
     3
 72
    14
 73
    10
 74
     0
 42
0.00000001
 43
0.00000001
 40
0.1621464677528699
 40
0.1621464677528699
 40
0.1621464677528699
 40
0.1621464677528699
 40
0.2823975820725611
 40
0.3926961163160032
 40
0.494579847080156
 40
0.5962373647671568
 40
0.710701282210207
 40
0.8424722498098756
 40
1.0
 40
1.0
 40
1.0
 40
1.0
 10
4.216872604717175
 20
-0.8862540072959664
 30
0.0
 10
4.208524868604684
 20
-0.88466963600389
 30
0.0
 10
4.192738580918664
 20
-0.8802726831991116
 30
0.0
 10
4.171764745984932
 20
-0.8690233757655192
 30
0.0
 10
4.15650393501098
 20
-0.8523653659270413
 30
0.0
 10
4.147273257472488
 20
-0.8314704165401414
 30
0.0
 10
4.144721522249032
 20
-0.8067480266332269
 30
0.0
 10
4.147709614124048
 20
-0.7781999800972466
 30
0.0
 10
4.153824151608194
 20
-0.7586596167477597
 30
0.0
 10
4.157153614457838
 20
-0.7480195783132343
 30
0.0
  0
ARC
  5
1EC
330
1F
100
AcDbEntity
  8
0
  6
Continuous
 62
     7
370
    25
100
AcDbCircle
 10
4.2052183735
 20
-0.9476578255
 30
0.0
 40
0.0625000000000071
100
AcDbArc
 50
0.0
 51
79.2532854814
  0
LINE
  5
1ED
330
1F
100
AcDbEntity
  8
0
  6
Continuous
 62
     7
370
    25
100
AcDbLine
 10
4.2677183735
 20
-0.9476578255
 30
0.0
 11
4.2677183735
 21
-1.2475
 31
0.0
  0
ARC
  5
1EE
330
1F
100
AcDbEntity
  8
0
  6
Continuous
 62
     7
370
    25
100
AcDbCircle
 10
4.2052183735
 20
-1.2475
 30
0.0
 40
0.0625
100
AcDbArc
 50
270.0
 51
0.0
  0
LINE
  5
1EF
330
1F
100
AcDbEntity
  8
0
  6
Continuous
 62
     7
370
    25
100
AcDbLine
 10
3.9546686747
 20
-1.31
 30
0.0
 11
4.2052183735
 21
-1.31
 31
0.0
  0
ARC
  5
1F0
330
1F
100
AcDbEntity
  8
0
  6
Continuous
 62
     7
370
    25
100
AcDbCircle
 10
3.9546686747
 20
-1.2475
 30
0.0
 40
0.0625000000000004
100
AcDbArc
 50
180.0
 51
270.0
  0
LINE
  5
1F1
330
1F
100
AcDbEntity
  8
0
  6
Continuous
 62
     7
370
    25
100
AcDbLine
 10
3.8921686747
 20
-1.2475
 30
0.0
 11
3.8921686747
 21
-0.9003286478
 31
0.0
  0
ARC
  5
1F2
330
1F
100
AcDbEntity
  8
0
  6
Continuous
 62
     7
370
    25
100
AcDbCircle
 10
3.9546686747
 20
-0.9003286478
 30
0.0
 40
0.0625000000000004
100
AcDbArc
 50
161.2324093314
 51
180.0
  0
LINE
  5
1F3
330
1F
100
AcDbEntity
  8
0
  6
Continuous
 62
     7
370
    25
100
AcDbLine
 10
4.284789528
 20
0.2654581567
 30
0.0
 11
3.8954917123
 21
-0.880220512
 31
0.0
  0
ARC
  5
1F4
330
1F
100
AcDbEntity
  8
0
  6
Continuous
 62
     7
370
    25
100
AcDbCircle
 10
4.3439664904
 20
0.245350021
 30
0.0
 40
0.0625000000000002
100
AcDbArc
 50
71.2324093314
 51
161.2324093314
  0
LINE
  5
1F5
330
1F
100
AcDbEntity
  8
0
  6
Continuous
 62
     7
370
    25
100
AcDbLine
 10
4.48926061
 20
0.2619892008
 30
0.0
 11
4.3640746262
 21
0.3045269834
 31
0.0
  0
ARC
  5
1F6
330
1F
100
AcDbEntity
  8
0
  6
Continuous
 62
     7
370
    25
100
AcDbCircle
 10
4.4691524743
 20
0.2028122384
 30
0.0
 40
0.0625000000000047
100
AcDbArc
 50
23.6895464485
 51
71.2324093314
  0
SPLINE
  5
1F7
330
1F
100
AcDbEntity
  8
0
  6
Continuous
 62
     7
370
    25
100
AcDbSpline
210
0.0
220
0.0
230
1.0
 70
     8
 71
     3
 72
     8
 73
     4
 74
     0
 42
0.00000001
 43
0.00000001
 40
0.0
 40
0.0
 40
0.0
 40
0.0
 40
0.1723429331472345
 40
0.1723429331472345
 40
0.1723429331472345
 40
0.1723429331472345
 10
4.538365963855424
 20
0.2051807228915869
 30
0.0
 10
4.534086382153869
 20
0.2126537595052826
 30
0.0
 10
4.529806800452314
 20
0.2201267961189783
 30
0.0
 10
4.526385968849936
 20
0.2279235327110652
 30
0.0
  0
LINE
  5
1F8
330
1F
100
AcDbEntity
  8
0
  6
Continuous
 62
     7
370
    25
100
AcDbLine
 10
4.875427101
 20
-0.2785406037
 30
0.0
 11
4.5383659639
 21
0.2051807229
 31
0.0
  0
ARC
  5
1F9
330
1F
100
AcDbEntity
  8
0
  6
Continuous
 62
     7
370
    25
100
AcDbCircle
 10
4.8241483386
 20
-0.3142720817
 30
0.0
 40
0.0625000000000011
100
AcDbArc
 50
341.2433689578
 51
34.8691120292
  0
LINE
  5
1FA
330
1F
100
AcDbEntity
  8
0
  6
Continuous
 62
     7
370
    25
100
AcDbLine
 10
4.7974189929
 20
-0.5873558521
 30
0.0
 11
4.8833291462
 21
-0.3343688977
 31
0.0
  0
ARC
  5
1FB
330
1F
100
AcDbEntity
  8
0
  6
Continuous
 62
     7
370
    25
100
AcDbCircle
 10
4.7382381853
 20
-0.5672590361
 30
0.0
 40
0.0625000000000009
100
AcDbArc
 50
270.0
 51
341.2433689578
  0
LINE
  5
1FC
330
1F
100
AcDbEntity
  8
0
  6
Continuous
 62
     7
370
    25
100
AcDbLine
 10
4.5449476832
 20
-0.6297590361
 30
0.0
 11
4.7382381853
 21
-0.6297590361
 31
0.0
  0
ARC
  5
1FD
330
1F
100
AcDbEntity
  8
0
  6
Continuous
 62
     7
370
    25
100
AcDbCircle
 10
4.5449476832
 20
-0.5672590361
 30
0.0
 40
0.0625000000000001
100
AcDbArc
 50
161.2433689578
 51
270.0
  0
LINE
  5
1FE
330
1F
100
AcDbEntity
  8
0
  6
Continuous
 62
     7
370
    25
100
AcDbLine
 10
1.4725326123
 20
-0.0967655062
 30
0.0
 11
1.2511295181
 21
-0.7480195783
 31
0.0
  0
ARC
  5
1FF
330
1F
100
AcDbEntity
  8
0
  6
Continuous
 62
     7
370
    25
100
AcDbCircle
 10
1.5317065538
 20
-0.1168825301
 30
0.0
 40
0.0625000000000001
100
AcDbArc
 50
90.0
 51
161.2238034972
  0
LINE
  5
200
330
1F
100
AcDbEntity
  8
0
  6
Continuous
 62
     7
370
    25
100
AcDbLine
 10
1.6165726325
 20
-0.0543825301
 30
0.0
 11
1.5317065538
 21
-0.0543825301
 31
0.0
  0
ARC
  5
201
330
1F
100
AcDbEntity
  8
0
  6
Continuous
 62
     7
370
    25
100
AcDbCircle
 10
1.6165726325
 20
-0.1168825301
 30
0.0
 40
0.0625
100
AcDbArc
 50
341.2324093314
 51
90.0
  0
LINE
  5
202
330
1F
100
AcDbEntity
  8
0
  6
Continuous
 62
     7
370
    25
100
AcDbLine
 10
1.2915695247
 20
-1.2676081357
 30
0.0
 11
1.6757495949
 21
-0.1369906659
 31
0.0
  0
ARC
  5
203
330
1F
100
AcDbEntity
  8
0
  6
Continuous
 62
     7
370
    25
100
AcDbCircle
 10
1.2323925623
 20
-1.2475
 30
0.0
 40
0.0624999999999998
100
AcDbArc
 50
270.0
 51
341.2324093314
  0
LINE
  5
204
330
1F
100
AcDbEntity
  8
0
  6
Continuous
 62
     7
370
    25
100
AcDbLine
 10
0.8033238169
 20
-1.31
 30
0.0
 11
1.2323925623
 21
-1.31
 31
0.0
  0
ARC
  5
205
330
1F
100
AcDbEntity
  8
0
  6
Continuous
 62
     7
370
    25
100
AcDbCircle
 10
0.8033238169
 20
-1.2475
 30
0.0
 40
0.0625000000000002
100
AcDbArc
 50
161.2333926893
 51
270.0
  0
LINE
  5
206
330
1F
100
AcDbEntity
  8
0
  6
Continuous
 62
     7
370
    25
100
AcDbLine
 10
0.7441465094
 20
-1.2273928799
 30
0.0
 11
0.8443808844
 21
-0.9323928799
 31
0.0
  0
ARC
  5
207
330
1F
100
AcDbEntity
  8
0
  6
Continuous
 62
     7
370
    25
100
AcDbCircle
 10
0.9035581919
 20
-0.9525
 30
0.0
 40
0.0625
100
AcDbArc
 50
90.0
 51
161.2333926893
  0
LINE
  5
208
330
1F
100
AcDbEntity
  8
0
  6
Continuous
 62
     7
370
    25
100
AcDbLine
 10
1.0610316265
 20
-0.89
 30
0.0
 11
0.9035581919
 21
-0.89
 31
0.0
  0
SPLINE
  5
209
330
1F
100
AcDbEntity
  8
0
  6
Continuous
 62
     7
370
    25
100
AcDbSpline
210
0.0
220
0.0
230
1.0
 70
     8
 71
     3
 72
    15
 73
    11
 74
     0
 42
0.00000001
 43
0.00000001
 40
0.0
 40
0.0
 40
0.0
 40
0.0
 40
0.1389228019771235
 40
0.2673753089644286
 40
0.3908431069045581
 40
0.5083576422643985
 40
0.6256054884338085
 40
0.7443315458751792
 40
0.8682476617455263
 40
1.0
 40
1.0
 40
1.0
 40
1.0
 10
1.251129518072297
 20
-0.7480195783132484
 30
0.0
 10
1.246681609623726
 20
-0.7588935255209065
 30
0.0
 10
1.238121021449885
 20
-0.779821875316135
 30
0.0
 10
1.220797974905578
 20
-0.8080830028352962
 30
0.0
 10
1.200914161328775
 20
-0.832277949108393
 30
0.0
 10
1.178057878072854
 20
-0.8522727218918136
 30
0.0
 10
1.152842209492529
 20
-0.8685278616979388
 30
0.0
 10
1.124543981388212
 20
-0.8799848598257757
 30
0.0
 10
1.093715581870183
 20
-0.887630699150285
 30
0.0
 10
1.072146640535572
 20
-0.8891942587152794
 30
0.0
 10
1.061031626506031
 20
-0.8899999999999961
 30
0.0
  0
LINE
  5
20A
330
1F
100
AcDbEntity
  8
0
  6
Continuous
 62
     7
370
    25
100
AcDbLine
 10
0.6672583688
 20
0.1499733375
 30
0.0
 11
0.877371988
 21
0.7680195783
 31
0.0
  0
ARC
  5
20B
330
1F
100
AcDbEntity
  8
0
  6
Continuous
 62
     7
370
    25
100
AcDbCircle
 10
0.6080844273
 20
0.1700903614
 30
0.0
 40
0.0624999999999999
100
AcDbArc
 50
270.0
 51
341.2238034972
  0
LINE
  5
20C
330
1F
100
AcDbEntity
  8
0
  6
Continuous
 62
     7
370
    25
100
AcDbLine
 10
0.6080844273
 20
0.1075903614
 30
0.0
 11
0.5232127846
 21
0.1075903614
 31
0.0
  0
ARC
  5
20D
330
1F
100
AcDbEntity
  8
0
  6
Continuous
 62
     7
370
    25
100
AcDbCircle
 10
0.5232127846
 20
0.1700903614
 30
0.0
 40
0.0625
100
AcDbArc
 50
161.2324093314
 51
270.0
  0
LINE
  5
20E
330
1F
100
AcDbEntity
  8
0
  6
Continuous
 62
     7
370
    25
100
AcDbLine
 10
0.8301360476
 20
1.2676081357
 30
0.0
 11
0.4640358222
 21
0.1901984972
 31
0.0
  0
ARC
  5
20F
330
1F
100
AcDbEntity
  8
0
  6
Continuous
 62
     7
370
    25
100
AcDbCircle
 10
0.88931301
 20
1.2475
 30
0.0
 40
0.0625
100
AcDbArc
 50
90.0
 51
161.2324093314
  0
LINE
  5
210
330
1F
100
AcDbEntity
  8
0
  6
Continuous
 62
     7
370
    25
100
AcDbLine
 10
1.3183821382
 20
1.31
 30
0.0
 11
0.88931301
 21
1.31
 31
0.0
  0
ARC
  5
211
330
1F
100
AcDbEntity
  8
0
  6
Continuous
 62
     7
370
    25
100
AcDbCircle
 10
1.3183821382
 20
1.2475
 30
0.0
 40
0.0624999999999999
100
AcDbArc
 50
341.2333926893
 51
90.0
  0
LINE
  5
212
330
1F
100
AcDbEntity
  8
0
  6
Continuous
 62
     7
370
    25
100
AcDbLine
 10
1.3775594457
 20
1.2273928799
 30
0.0
 11
1.2841206216
 21
0.9523928799
 31
0.0
  0
ARC
  5
213
330
1F
100
AcDbEntity
  8
0
  6
Continuous
 62
     7
370
    25
100
AcDbCircle
 10
1.2249433141
 20
0.9725
 30
0.0
 40
0.0625
100
AcDbArc
 50
270.0
 51
341.2333926893
  0
LINE
  5
214
330
1F
100
AcDbEntity
  8
0
  6
Continuous
 62
     7
370
    25
100
AcDbLine
 10
1.0674698795
 20
0.91
 30
0.0
 11
1.2249433141
 21
0.91
 31
0.0
  0
SPLINE
  5
215
330
1F
100
AcDbEntity
  8
0
  6
Continuous
 62
     7
370
    25
100
AcDbSpline
210
0.0
220
0.0
230
1.0
 70
     8
 71
     3
 72
    15
 73
    11
 74
     0
 42
0.00000001
 43
0.00000001
 40
0.0
 40
0.0
 40
0.0
 40
0.0
 40
0.1389228019771224
 40
0.2673753089644276
 40
0.390843106904557
 40
0.5083576422643978
 40
0.6256054884338079
 40
0.7443315458751787
 40
0.868247661745526
 40
1.0
 40
1.0
 40
1.0
 40
1.0
 10
0.8773719879518072
 20
0.7680195783132557
 30
0.0
 10
0.881819896400378
 20
0.7788935255209141
 30
0.0
 10
0.8903804845742175
 20
0.7998218753161426
 30
0.0
 10
0.9077035311185249
 20
0.8280830028353043
 30
0.0
 10
0.9275873446953286
 20
0.8522779491084002
 30
0.0
 10
0.9504436279512485
 20
0.8722727218918216
 30
0.0
 10
0.9756592965315736
 20
0.8885278616979457
 30
0.0
 10
1.00395752463589
 20
0.8999848598257838
 30
0.0
 10
1.03478592415392
 20
0.9076306991502925
 30
0.0
 10
1.05635486548853
 20
0.909194258715287
 30
0.0
 10
1.067469879518071
 20
0.9100000000000038
 30
0.0
  0
LINE
  5
216
330
1F
100
AcDbEntity
  8
0
  6
Continuous
 62
     7
370
    25
100
AcDbLine
 10
0.7497830023
 20
-0.6297590361
 30
0.0
 11
0.9864391905
 21
-0.6297590361
 31
0.0
  0
ARC
  5
217
330
1F
100
AcDbEntity
  8
0
  6
Continuous
 62
     7
370
    25
100
AcDbCircle
 10
0.7497830023
 20
-0.5672590361
 30
0.0
 40
0.0625000000000002
100
AcDbArc
 50
161.2333926893
 51
270.0
  0
LINE
  5
218
330
1F
100
AcDbEntity
  8
0
  6
Continuous
 62
     7
370
    25
100
AcDbLine
 10
1.0828850081
 20
0.6073661562
 30
0.0
 11
0.6906056949
 21
-0.547151916
 31
0.0
  0
ARC
  5
219
330
1F
100
AcDbEntity
  8
0
  6
Continuous
 62
     7
370
    25
100
AcDbCircle
 10
1.1420623156
 20
0.5872590361
 30
0.0
 40
0.0625000000000001
100
AcDbArc
 50
90.0
 51
161.2333926893
  0
LINE
  5
21A
330
1F
100
AcDbEntity
  8
0
  6
Continuous
 62
     7
370
    25
100
AcDbLine
 10
1.3787185037
 20
0.6497590361
 30
0.0
 11
1.1420623156
 21
0.6497590361
 31
0.0
  0
ARC
  5
21B
330
1F
100
AcDbEntity
  8
0
  6
Continuous
 62
     7
370
    25
100
AcDbCircle
 10
1.3787185037
 20
0.5872590361
 30
0.0
 40
0.0625000000000004
100
AcDbArc
 50
341.2333926893
 51
90.0
  0
LINE
  5
21C
330
1F
100
AcDbEntity
  8
0
  6
Continuous
 62
     7
370
    25
100
AcDbLine
 10
1.0456164979
 20
-0.5873661562
 30
0.0
 11
1.4378958112
 21
0.567151916
 31
0.0
  0
ARC
  5
21D
330
1F
100
AcDbEntity
  8
0
  6
Continuous
 62
     7
370
    25
100
AcDbCircle
 10
0.9864391905
 20
-0.5672590361
 30
0.0
 40
0.0625
100
AcDbArc
 50
270.0
 51
341.2333926893
  0
LINE
  5
21E
330
1F
100
AcDbEntity
  8
0
  6
Continuous
 62
     7
370
    25
100
AcDbLine
 10
3.2123608188
 20
0.1075903614
 30
0.0
 11
3.449223326
 21
0.1075903614
 31
0.0
  0
ARC
  5
21F
330
1F
100
AcDbEntity
  8
0
  6
Continuous
 62
     7
370
    25
100
AcDbCircle
 10
3.2123608188
 20
0.1700903614
 30
0.0
 40
0.0625000000000003
100
AcDbArc
 50
161.2328179083
 51
270.0
  0
LINE
  5
220
330
1F
100
AcDbEntity
  8
0
  6
Continuous
 62
     7
370
    25
100
AcDbLine
 10
3.2949329282
 20
0.6073667499
 30
0.0
 11
3.153183713
 21
0.1901980752
 31
0.0
  0
ARC
  5
221
330
1F
100
AcDbEntity
  8
0
  6
Continuous
 62
     7
370
    25
100
AcDbCircle
 10
3.354110034
 20
0.5872590361
 30
0.0
 40
0.0625000000000003
100
AcDbArc
 50
90.0
 51
161.2328179083
  0
LINE
  5
222
330
1F
100
AcDbEntity
  8
0
  6
Continuous
 62
     7
370
    25
100
AcDbLine
 10
3.590799945
 20
0.6497590361
 30
0.0
 11
3.354110034
 21
0.6497590361
 31
0.0
  0
ARC
  5
223
330
1F
100
AcDbEntity
  8
0
  6
Continuous
 62
     7
370
    25
100
AcDbCircle
 10
3.590799945
 20
0.5872590361
 30
0.0
 40
0.0624999999999999
100
AcDbArc
 50
341.2540720849
 51
90.0
  0
LINE
  5
224
330
1F
100
AcDbEntity
  8
0
  6
Continuous
 62
     7
370
    25
100
AcDbLine
 10
3.5084078868
 20
0.1500046011
 30
0.0
 11
3.6499845058
 21
0.5671732758
 31
0.0
  0
ARC
  5
225
330
1F
100
AcDbEntity
  8
0
  6
Continuous
 62
     7
370
    25
100
AcDbCircle
 10
3.449223326
 20
0.1700903614
 30
0.0
 40
0.0625
100
AcDbArc
 50
270.0
 51
341.2540720849
  0
CIRCLE
  5
226
330
1F
100
AcDbEntity
  8
0
  6
Continuous
 62
     7
370
    25
100
AcDbCircle
 10
-5.46
 20
-0.1
 30
0.0
 40
0.0847499999999997
  0
CIRCLE
  5
227
330
1F
100
AcDbEntity
  8
0
  6
Continuous
 62
     7
370
    25
100
AcDbCircle
 10
-4.68
 20
0.9
 30
0.0
 40
0.0847499999999997
  0
CIRCLE
  5
228
330
1F
100
AcDbEntity
  8
0
  6
Continuous
 62
     7
370
    25
100
AcDbCircle
 10
-0.875
 20
0.65
 30
0.0
 40
0.0979999999999995
  0
LINE
  5
229
330
1F
100
AcDbEntity
  8
0
  6
Continuous
 62
     7
370
    25
100
AcDbLine
 10
2.4023837904
 20
0.1500046011
 30
0.0
 11
2.4595483371
 21
0.3184452543
 31
0.0
  0
ARC
  5
22A
330
1F
100
AcDbEntity
  8
0
  6
Continuous
 62
     7
370
    25
100
AcDbCircle
 10
2.3431992297
 20
0.1700903614
 30
0.0
 40
0.0625000000000001
100
AcDbArc
 50
270.0
 51
341.2540720849
  0
LINE
  5
22B
330
1F
100
AcDbEntity
  8
0
  6
Continuous
 62
     7
370
    25
100
AcDbLine
 10
2.1063367224
 20
0.1075903614
 30
0.0
 11
2.3431992297
 21
0.1075903614
 31
0.0
  0
ARC
  5
22C
330
1F
100
AcDbEntity
  8
0
  6
Continuous
 62
     7
370
    25
100
AcDbCircle
 10
2.1063367224
 20
0.1700903614
 30
0.0
 40
0.0625000000000003
100
AcDbArc
 50
161.2328179083
 51
270.0
  0
LINE
  5
22D
330
1F
100
AcDbEntity
  8
0
  6
Continuous
 62
     7
370
    25
100
AcDbLine
 10
2.1259032179
 20
0.4219409018
 30
0.0
 11
2.0471596166
 21
0.1901980752
 31
0.0
  0
ARC
  5
22E
330
1F
100
AcDbEntity
  8
0
  6
Continuous
 62
     7
370
    25
100
AcDbCircle
 10
2.1850803237
 20
0.401833188
 30
0.0
 40
0.0625000000000003
100
AcDbArc
 50
52.5735171051
 51
161.2328179083
  0
ARC
  5
22F
330
1F
100
AcDbEntity
  8
0
  6
Continuous
 62
     7
370
    25
100
AcDbCircle
 10
2.375
 20
0.65
 30
0.0
 40
0.2499999999999998
100
AcDbArc
 50
232.5735171051
 51
274.6554804636
  0
ARC
  5
230
330
1F
100
AcDbEntity
  8
0
  6
Continuous
 62
     7
370
    25
100
AcDbCircle
 10
2.4003637763
 20
0.3385310146
 30
0.0
 40
0.0625
100
AcDbArc
 50
341.2540720849
 51
94.6554804636
  0
CIRCLE
  5
231
330
1F
100
AcDbEntity
  8
0
  6
Continuous
 62
     7
370
    25
100
AcDbCircle
 10
2.375
 20
0.65
 30
0.0
 40
0.0979999999999999
  0
CIRCLE
  5
232
330
1F
100
AcDbEntity
  8
0
  6
Continuous
 62
     7
370
    25
100
AcDbCircle
 10
5.57
 20
0.9
 30
0.0
 40
0.0847499999999997
  0
CIRCLE
  5
233
330
1F
100
AcDbEntity
  8
0
  6
Continuous
 62
     7
370
    25
100
AcDbCircle
 10
-0.875
 20
-1.1
 30
0.0
 40
0.0979999999999994
  0
CIRCLE
  5
234
330
1F
100
AcDbEntity
  8
0
  6
Continuous
 62
     7
370
    25
100
AcDbCircle
 10
2.375
 20
-1.1
 30
0.0
 40
0.0979999999999994
  0
LINE
  5
235
330
1F
100
AcDbEntity
  8
0
  6
Continuous
 62
     7
370
    25
100
AcDbLine
 10
-4.7725284403
 20
0.6073482277
 30
0.0
 11
-4.9435773991
 21
0.1034325651
 31
0.0
  0
ARC
  5
236
330
1F
100
AcDbEntity
  8
0
  6
Continuous
 62
     7
370
    25
100
AcDbCircle
 10
-4.7133450441
 20
0.5872590361
 30
0.0
 40
0.0625
100
AcDbArc
 50
90.0
 51
161.2507502795
  0
LINE
  5
237
330
1F
100
AcDbEntity
  8
0
  6
Continuous
 62
     7
370
    25
100
AcDbLine
 10
-4.5200487682
 20
0.6497590361
 30
0.0
 11
-4.7133450441
 21
0.6497590361
 31
0.0
  0
ARC
  5
238
330
1F
100
AcDbEntity
  8
0
  6
Continuous
 62
     7
370
    25
100
AcDbCircle
 10
-4.5200487682
 20
0.5872590361
 30
0.0
 40
0.0625000000000001
100
AcDbArc
 50
341.2507502795
 51
90.0
  0
LINE
  5
239
330
1F
100
AcDbEntity
  8
0
  6
Continuous
 62
     7
370
    25
100
AcDbLine
 10
-4.6319143308
 20
0.0632541819
 30
0.0
 11
-4.460865372
 21
0.5671698446
 31
0.0
  0
ARC
  5
23A
330
1F
100
AcDbEntity
  8
0
  6
Continuous
 62
     7
370
    25
100
AcDbCircle
 10
-4.6910977269
 20
0.0833433735
 30
0.0
 40
0.0625
100
AcDbArc
 50
270.0
 51
341.2507502795
  0
LINE
  5
23B
330
1F
100
AcDbEntity
  8
0
  6
Continuous
 62
     7
370
    25
100
AcDbLine
 10
-4.8843940029
 20
0.0208433735
 30
0.0
 11
-4.6910977269
 21
0.0208433735
 31
0.0
  0
ARC
  5
23C
330
1F
100
AcDbEntity
  8
0
  6
Continuous
 62
     7
370
    25
100
AcDbCircle
 10
-4.8843940029
 20
0.0833433735
 30
0.0
 40
0.0625000000000014
100
AcDbArc
 50
161.2507502795
 51
270.0
  0
ENDSEC
  0
SECTION
  2
OBJECTS
  0
DICTIONARY
  5
C
330
0
100
AcDbDictionary
281
     1
  3
ACAD_GROUP
350
D
  3
ACAD_LAYOUT
350
1A
  3
ACAD_MLINESTYLE
350
17
  3
ACAD_PLOTSETTINGS
350
19
  3
ACAD_PLOTSTYLENAME
350
E
  3
ACAD_SCALELIST
350
47
  3
DWGPROPS
350
23D
  0
DICTIONARY
  5
D
102
{ACAD_REACTORS
330
C
102
}
330
C
100
AcDbDictionary
281
     1
  0
DICTIONARY
  5
1A
102
{ACAD_REACTORS
330
C
102
}
330
C
100
AcDbDictionary
281
     1
  3
Layout1
350
1E
  3
Layout2
350
26
  3
Model
350
22
  0
DICTIONARY
  5
17
102
{ACAD_REACTORS
330
C
102
}
330
C
100
AcDbDictionary
281
     1
  3
Standard
350
18
  0
DICTIONARY
  5
19
102
{ACAD_REACTORS
330
C
102
}
330
C
100
AcDbDictionary
281
     1
  0
ACDBDICTIONARYWDFLT
  5
E
102
{ACAD_REACTORS
330
C
102
}
330
C
100
AcDbDictionary
281
     1
  3
Normal
350
F
100
AcDbDictionaryWithDefault
340
F
  0
DICTIONARY
  5
47
102
{ACAD_REACTORS
330
C
102
}
330
C
100
AcDbDictionary
281
     1
  3
A0
350
48
  3
A1
350
49
  3
A2
350
4A
  3
A3
350
4B
  3
A4
350
4C
  3
A5
350
4D
  3
A6
350
4E
  3
A7
350
4F
  3
A8
350
50
  3
A9
350
51
  3
B1
350
52
  3
B2
350
53
  3
B3
350
54
  3
B4
350
55
  3
B5
350
56
  3
B6
350
57
  3
B7
350
58
  0
XRECORD
  5
23D
102
{ACAD_REACTORS
330
C
102
}
330
C
100
AcDbXrecord
280
     1
  1
DWGPROPS COOKIE
  2

  3

  4

  6

  7

  8
randy
  9

300
=
301
=
302
=
303
=
304
=
305
=
306
=
307
=
308
=
309
=
 40
0.0
 41
2460623.043761956
 42
2460623.043811285
  1

 90
        0
  0
LAYOUT
  5
1E
102
{ACAD_REACTORS
330
1A
102
}
330
1A
100
AcDbPlotSettings
  1

  2
none_device
  4

  6

 40
0.0
 41
0.0
 42
0.0
 43
0.0
 44
0.0
 45
0.0
 46
0.0
 47
0.0
 48
0.0
 49
0.0
140
0.0
141
0.0
142
1.0
143
1.0
 70
   688
 72
     0
 73
     0
 74
     5
  7

 75
    16
147
1.0
148
0.0
149
0.0
100
AcDbLayout
  1
Layout1
 70
     1
 71
     1
 10
0.0
 20
0.0
 11
12.0
 21
9.0
 12
0.0
 22
0.0
 32
0.0
 14
1.0000000000E+20
 24
1.0000000000E+20
 34
1.0000000000E+20
 15
-1.0000000000E+20
 25
-1.0000000000E+20
 35
-1.0000000000E+20
146
0.0
 13
0.0
 23
0.0
 33
0.0
 16
1.0
 26
0.0
 36
0.0
 17
0.0
 27
1.0
 37
0.0
 76
     0
330
1B
  0
LAYOUT
  5
26
102
{ACAD_REACTORS
330
1A
102
}
330
1A
100
AcDbPlotSettings
  1

  2
none_device
  4

  6

 40
0.0
 41
0.0
 42
0.0
 43
0.0
 44
0.0
 45
0.0
 46
0.0
 47
0.0
 48
0.0
 49
0.0
140
0.0
141
0.0
142
1.0
143
1.0
 70
   688
 72
     0
 73
     0
 74
     5
  7

 75
    16
147
1.0
148
0.0
149
0.0
100
AcDbLayout
  1
Layout2
 70
     1
 71
     2
 10
0.0
 20
0.0
 11
0.0
 21
0.0
 12
0.0
 22
0.0
 32
0.0
 14
0.0
 24
0.0
 34
0.0
 15
0.0
 25
0.0
 35
0.0
146
0.0
 13
0.0
 23
0.0
 33
0.0
 16
1.0
 26
0.0
 36
0.0
 17
0.0
 27
1.0
 37
0.0
 76
     0
330
23
  0
LAYOUT
  5
22
102
{ACAD_REACTORS
330
1A
102
}
330
1A
100
AcDbPlotSettings
  1

  2
none_device
  4
ANSI_A_(11.00_x_8.50_Inches)
  6

 40
6.35
 41
19.05
 42
6.35000508
 43
19.05000254
 44
279.4
 45
215.9
 46
133.34999746
 47
88.89999873
 48
0.0
 49
0.0
140
0.0
141
0.0
142
0.9075
143
1.0
 70
  1696
 72
     0
 73
     0
 74
     0
  7

 75
     0
147
0.5913241897
148
-39.4088153714
149
0.0
100
AcDbLayout
  1
Model
 70
     1
 71
     0
 10
0.0
 20
0.0
 11
12.0
 21
9.0
 12
0.0
 22
0.0
 32
0.0
 14
-6.0
 24
-1.5
 34
0.0
 15
6.0
 25
1.5
 35
0.0
146
0.0
 13
0.0
 23
0.0
 33
0.0
 16
1.0
 26
0.0
 36
0.0
 17
0.0
 27
1.0
 37
0.0
 76
     0
330
1F
331
29
  0
MLINESTYLE
  5
18
102
{ACAD_REACTORS
330
17
102
}
330
17
100
AcDbMlineStyle
  2
Standard
 70
     0
  3

 62
   256
 51
90.0
 52
90.0
 71
     2
 49
0.5
 62
   256
  6
BYLAYER
 49
-0.5
 62
   256
  6
BYLAYER
  0
ACDBPLACEHOLDER
  5
F
102
{ACAD_REACTORS
330
E
102
}
330
E
  0
SCALE
  5
48
102
{ACAD_REACTORS
330
47
102
}
330
47
100
AcDbScale
 70
     0
300
1:1
140
1.0
141
1.0
290
     1
  0
SCALE
  5
49
102
{ACAD_REACTORS
330
47
102
}
330
47
100
AcDbScale
 70
     0
300
1/128" = 1'-0"
140
0.0078125
141
12.0
290
     0
  0
SCALE
  5
4A
102
{ACAD_REACTORS
330
47
102
}
330
47
100
AcDbScale
 70
     0
300
1/64" = 1'-0"
140
0.015625
141
12.0
290
     0
  0
SCALE
  5
4B
102
{ACAD_REACTORS
330
47
102
}
330
47
100
AcDbScale
 70
     0
300
1/32" = 1'-0"
140
0.03125
141
12.0
290
     0
  0
SCALE
  5
4C
102
{ACAD_REACTORS
330
47
102
}
330
47
100
AcDbScale
 70
     0
300
1/16" = 1'-0"
140
0.0625
141
12.0
290
     0
  0
SCALE
  5
4D
102
{ACAD_REACTORS
330
47
102
}
330
47
100
AcDbScale
 70
     0
300
3/32" = 1'-0"
140
0.09375
141
12.0
290
     0
  0
SCALE
  5
4E
102
{ACAD_REACTORS
330
47
102
}
330
47
100
AcDbScale
 70
     0
300
1/8" = 1'-0"
140
0.125
141
12.0
290
     0
  0
SCALE
  5
4F
102
{ACAD_REACTORS
330
47
102
}
330
47
100
AcDbScale
 70
     0
300
3/16" = 1'-0"
140
0.1875
141
12.0
290
     0
  0
SCALE
  5
50
102
{ACAD_REACTORS
330
47
102
}
330
47
100
AcDbScale
 70
     0
300
1/4" = 1'-0"
140
0.25
141
12.0
290
     0
  0
SCALE
  5
51
102
{ACAD_REACTORS
330
47
102
}
330
47
100
AcDbScale
 70
     0
300
3/8" = 1'-0"
140
0.375
141
12.0
290
     0
  0
SCALE
  5
52
102
{ACAD_REACTORS
330
47
102
}
330
47
100
AcDbScale
 70
     0
300
1/2" = 1'-0"
140
0.5
141
12.0
290
     0
  0
SCALE
  5
53
102
{ACAD_REACTORS
330
47
102
}
330
47
100
AcDbScale
 70
     0
300
3/4" = 1'-0"
140
0.75
141
12.0
290
     0
  0
SCALE
  5
54
102
{ACAD_REACTORS
330
47
102
}
330
47
100
AcDbScale
 70
     0
300
1" = 1'-0"
140
1.0
141
12.0
290
     0
  0
SCALE
  5
55
102
{ACAD_REACTORS
330
47
102
}
330
47
100
AcDbScale
 70
     0
300
1-1/2" = 1'-0"
140
1.5
141
12.0
290
     0
  0
SCALE
  5
56
102
{ACAD_REACTORS
330
47
102
}
330
47
100
AcDbScale
 70
     0
300
3" = 1'-0"
140
3.0
141
12.0
290
     0
  0
SCALE
  5
57
102
{ACAD_REACTORS
330
47
102
}
330
47
100
AcDbScale
 70
     0
300
6" = 1'-0"
140
6.0
141
12.0
290
     0
  0
SCALE
  5
58
102
{ACAD_REACTORS
330
47
102
}
330
47
100
AcDbScale
 70
     0
300
1'-0" = 1'-0"
140
12.0
141
12.0
290
     0
  0
ENDSEC
  0
EOF
